<?xml version="1.0" encoding="utf-8"?>
<!-- Generator: Adobe Illustrator 25.2.2, SVG Export Plug-In . SVG Version: 6.00 Build 0)  -->
<svg version="1.1" id="Layer_1" xmlns="http://www.w3.org/2000/svg" xmlns:xlink="http://www.w3.org/1999/xlink" x="0px" y="0px"
	 viewBox="0 0 244 54" style="enable-background:new 0 0 244 54;" xml:space="preserve">
<style type="text/css">
	.st0{fill-rule:evenodd;clip-rule:evenodd;fill:#005CAB;}
	.st1{fill:#005CAB;}
	.st2{fill:#FFFFFF;}
</style>
<g>
	<g>
		<g>
			<polygon class="st0" points="41.66,40.54 41.66,39.29 40.44,39.29 40.44,36.45 39.27,36.45 39.27,40.54 			"/>
			<polygon class="st0" points="36.49,40.98 36.49,42.23 37.69,42.23 37.69,49.67 38.86,49.67 38.86,40.98 			"/>
			<polygon class="st0" points="41.66,40.98 41.66,42.23 40.44,42.23 40.44,49.67 39.27,49.67 39.27,40.98 			"/>
			<polygon class="st0" points="36.48,40.54 36.48,39.29 37.7,39.29 37.7,36.45 38.87,36.45 38.87,40.54 			"/>
			<rect x="42.11" y="36.44" class="st0" width="1.16" height="13.23"/>
			<path class="st0" d="M48.95,44.69v4.99h1.14v-4.99v-0.7c0.03-1.82-1.45-3.21-3.21-3.21c-1.77,0-3.21,1.44-3.21,3.21v0.7v4.99
				h1.11v-4.99v-0.53c0-1.14,0.94-2.21,2.09-2.21c1.24,0.03,2.08,1.05,2.08,2.2V44.69z"/>
			<path class="st0" d="M51.63,49.67H50.5c0-2.35,0-5.99,0-5.99c-0.03-1.88-1.83-3.28-3.37-3.33c-1.45-0.05-2.68,0.57-3.43,1.97
				v-5.89h1.16c0,0,0.01,2.48,0,3.49c0.61-0.47,1.42-0.64,2.29-0.64c2.27,0,4.49,2,4.49,4.45V49.67z"/>
			<polygon class="st0" points="67.79,49.67 67.79,39.3 68.95,39.3 68.93,49.67 			"/>
			<path class="st0" d="M74.62,44.69v4.99h1.14v-4.99v-0.7c0-1.84-1.45-3.21-3.21-3.21c-1.77,0-3.21,1.44-3.21,3.21v0.7v4.99h1.11
				v-4.99v-0.53c0-1.14,0.94-2.21,2.09-2.21c1.24,0.03,2.08,1.05,2.08,2.2V44.69z"/>
			<path class="st0" d="M77.34,49.67h-1.15c0-2.35,0-5.93,0-5.93c-0.03-1.89-1.87-3.4-3.4-3.4c-1.52,0-2.76,0.65-3.43,2.04V39.3
				h1.22c0,0,0.01,0.05,0,0.63c0.61-0.47,1.37-0.64,2.24-0.64c2.45,0,4.52,2,4.52,4.45V49.67z"/>
			<rect x="30.97" y="39.3" class="st0" width="1.11" height="10.37"/>
			<path class="st0" d="M32.51,43.13c-0.01-1.69,0-3.84,0-3.84h1.08c0,0-0.01,0.53,0,1.03c0.88-1.12,2.46-1.05,2.46-1.05v1.23
				C34.96,40.53,33.24,41.02,32.51,43.13z"/>
			<path class="st0" d="M32.51,49.67c0,0,0-2.67,0-4.33c0-0.81,0.19-4.16,3.54-4.37c0,0.44,0,0.71,0,1.26
				c-0.77-0.03-2.43,0.45-2.46,3.32c0,2.03,0,4.11,0,4.11H32.51z"/>
			<polygon class="st0" points="9.11,36.01 11.1,36.01 17.53,44.27 17.53,36 18.64,36 18.64,47.72 10.27,36.74 10.27,49.67 
				9.11,49.67 			"/>
			<polygon class="st0" points="20.23,49.67 18.21,49.67 11.81,41.4 11.81,49.67 10.7,49.67 10.7,38.05 19.09,49.04 19.09,36 
				20.23,36.01 			"/>
			<rect x="62.32" y="39.3" class="st0" width="1.11" height="10.37"/>
			<path class="st0" d="M63.85,43.2c-0.01-1.69,0-3.9,0-3.9h1.08c0,0-0.01,0.53,0,1.03c0.88-1.12,2.46-1.05,2.46-1.05v1.23
				C66.32,40.58,64.56,41.04,63.85,43.2z"/>
			<path class="st0" d="M63.85,49.67c0,0,0-2.67,0-4.33c0-0.81,0.19-4.16,3.55-4.37c0,0.44,0,0.71,0,1.26
				c-0.77-0.03-2.43,0.45-2.46,3.32c0,2.03,0,4.11,0,4.11H63.85z"/>
			<path class="st0" d="M21.84,44.53c0-2.08,1.69-3.77,3.77-3.77c2.08,0,3.77,1.7,3.77,3.77c0,2.08-1.7,3.77-3.77,3.77
				C23.53,48.3,21.84,46.61,21.84,44.53z M23.03,44.52c0-1.42,1.16-2.58,2.58-2.58c1.42,0,2.58,1.16,2.58,2.58
				c0,1.43-1.16,2.58-2.58,2.58C24.19,47.11,23.03,45.95,23.03,44.52z"/>
			<path class="st0" d="M20.17,44.52c0-3,2.44-5.44,5.44-5.44c3,0,5.44,2.44,5.44,5.44c0,3-2.44,5.44-5.44,5.44
				C22.61,49.96,20.17,47.52,20.17,44.52z M21.43,44.53c0-2.3,1.88-4.19,4.18-4.19c2.3,0,4.18,1.89,4.18,4.19
				c0,2.3-1.88,4.18-4.18,4.18C23.31,48.71,21.43,46.84,21.43,44.53z"/>
			<path class="st0" d="M53.21,44.11c0.11-1.72,1.7-3.37,3.71-3.37c1.94,0,3.55,1.48,3.76,3.37H53.21z M54.74,43.06
				c0.45-0.72,1.26-1.19,2.18-1.19c0.87,0,1.81,0.43,2.16,1.19H54.74z"/>
			<path class="st0" d="M60.13,46.47c-0.59,1.1-1.8,1.81-3.21,1.81c-2.04,0-3.76-1.67-3.76-3.75c0.68-0.01,7.97,0,7.97,0
				c0-2.35-1.92-4.18-4.21-4.18c-2.29,0-4.16,1.88-4.16,4.17c0,2.29,1.87,4.16,4.16,4.16c1.63,0,2.98-0.83,3.69-2.21h1.36
				c-0.69,2.09-2.79,3.45-5.06,3.45c-3.01,0-5.44-2.41-5.44-5.41c0-3,2.43-5.44,5.44-5.44c3,0,5.44,2.44,5.44,5.44
				c0,0.39-0.04,0.78-0.12,1.15h-7.54c0,0,0.52,1.39,2.22,1.43c0.64,0,1.26-0.19,1.68-0.62C58.75,46.47,60.13,46.47,60.13,46.47z"/>
		</g>
		<g>
			<rect x="124.56" y="41.83" class="st1" width="37.8" height="0.7"/>
			<rect x="124.52" y="49.44" class="st1" width="37.83" height="0.7"/>
			<path class="st0" d="M162.35,44.38l-2.49,0.01c0.02,1.64,0.01,2.79,0,4.22h-2.64c0.02-2.1,0.04-2.78,0.01-4.22l-2.4,0v-1.12h7.51
				V44.38z"/>
			<path class="st0" d="M128.49,43.24c0.59,1.13,1.17,2.26,1.82,3.36c0.07,0.03,1.34-2.5,1.75-3.38h4.06v5.31
				c-0.92-0.03-1.62,0.04-2.43,0c0.04-1.35,0.17-2.69,0.2-4.06c-0.02-0.02-0.04-0.05-0.08-0.03c-0.75,1.2-2.37,4.09-2.37,4.09
				l-2.34,0.01c-0.8-1.37-1.42-2.74-2.24-4.08h-0.06c0.03,1.37,0.19,2.71,0.24,4.08l-2.54,0.06v-5.31
				C125.95,43.27,127.16,43.24,128.49,43.24z"/>
			<path class="st0" d="M151.74,43.29c1.04,0,2.08,0.06,2.5,1.04c0.22,0.66,0.08,1.5-0.32,1.81c-0.42,0.23-0.91,0.31-1.38,0.41
				c-0.03,0.06,0.03,0.06,0.06,0.08c0.54-0.01,1.31,0.09,1.59,0.63c0.11,0.42,0.04,0.9,0.06,1.35h-2.64
				c-0.07-0.45,0.17-1.06-0.33-1.29c-0.54-0.32-1.63-0.09-2.53-0.14l-0.03,0.03v1.39l-2.65,0v-5.31L151.74,43.29z M142.99,43.29
				c0.95,1.78,1.95,3.56,2.89,5.32l-2.49,0.01l-0.53-0.89c-1.13-0.03-2.29-0.03-3.42,0L139,48.61l-2.57,0.02
				c0.92-1.77,1.9-3.57,2.82-5.33C140.37,43.34,141.72,43.3,142.99,43.29z M142.44,46.72h-2.5l0.12-0.15l1.08-2.21
				C141.56,45.12,142.05,45.97,142.44,46.72z M150.93,44.49c0.1,0.08,0.27,0.01,0.39,0.06c0.13,0.06,0.29,0.09,0.36,0.25
				c0.09,0.31,0.11,0.66-0.02,0.96c-0.25,0.2-0.63,0.2-0.98,0.22h-1.95l0.03-1.5C149.63,44.43,150.1,44.4,150.93,44.49z"/>
			<g>
				<g>
					<path class="st0" d="M110.57,31.4c-6.39,5.67-11.6,12.71-15.98,19.86c-0.35-0.1-0.84-0.21-0.92-0.65l0.08-0.98
						c1.01-3.58,2.08-7.13,3.12-10.7l-0.03-0.03c-3.69,4.74-7.13,9.57-10.08,14.6c-0.3-0.87,0.17-1.62,0.44-2.35
						c2.73-5.71,6.88-10.87,10.97-15.95c0.48,0.05,0.94,0.32,1.17,0.76c0.16,0.3,0.03,0.65-0.03,0.95l-2.82,8.86
						c-0.03,0.11-0.08,0.24-0.11,0.35l0.08,0.08c3.76-5.18,7.64-10.76,13.05-14.39C109.86,31.67,110.19,31.5,110.57,31.4z"/>
					<path class="st0" d="M110.57,31.4c-6.39,5.67-11.6,12.71-15.98,19.86c-0.35-0.1-0.84-0.21-0.92-0.65l0.08-0.98
						c1.01-3.58,2.08-7.13,3.12-10.7l-0.03-0.03c-3.69,4.74-7.13,9.57-10.08,14.6c-0.3-0.87,0.17-1.62,0.44-2.35
						c2.73-5.71,6.88-10.87,10.97-15.95c0.48,0.05,0.94,0.32,1.17,0.76c0.16,0.3,0.03,0.65-0.03,0.95l-2.82,8.86
						c-0.03,0.11-0.08,0.24-0.11,0.35l0.08,0.08c3.76-5.18,7.64-10.76,13.05-14.39C109.86,31.67,110.19,31.5,110.57,31.4z"/>
				</g>
				<g>
					<path class="st1" d="M126.63,34.72v0.08c-2.84,2.68-5.66,5.93-7.99,9.08l0.03,0.05c1.52-1.22,2.98-2.66,4.83-3.23
						c0.62-0.1,0.94,0.33,1.22,0.79c0.1,0.06-0.03,0.22,0.11,0.27l-0.08,0.14c-1.25,1.6-2.69,2.93-3.76,4.61
						c-0.51,0.81-1.05,1.6-1.38,2.47c0.03,0.06,0.11,0.02,0.16,0.03c1.27-0.84,2.27-2.06,3.84-2.17v0.13
						c-1.52,1.05-2.65,2.33-4.14,3.42c-0.29,0.06-0.6-0.03-0.81-0.27c-0.27-0.24-0.4-0.52-0.46-0.84c0.52-2.76,2.44-4.98,4.18-7.2
						l-0.03-0.03c-3.19,1.87-5.58,4.61-7.88,7.5c-0.35,0.1-0.68-0.28-0.9-0.57V48.6c0.25-0.55,0.71-1.06,0.9-1.6
						c-1.22,0.87-2.12,1.93-3.42,2.69c-0.46-0.08-0.82-0.38-0.98-0.82c-0.08-0.87,0.52-1.46,0.79-2.17
						c1.52-2.61,3.28-5.15,5.25-7.53l-0.14-0.08c-2.54,0.17-4.88,0.25-7.39,0.38c2.63-0.59,5.6-1.17,8.53-1.41l2.09-2.28
						c0.54-0.05,1.14,0.16,1.47,0.57c-0.4,0.48-0.97,0.98-1.28,1.49c0.52,0.11,1.11-0.06,1.55,0v0.06l-1.03,1l-1.63,0.11
						c-2.57,2.76-4.72,5.9-6.58,9.05h0.16c1.28-0.98,2.66-1.84,3.92-2.81c2.88-4.01,5.86-7.8,9.46-11.27
						C125.85,33.89,126.18,34.43,126.63,34.72z"/>
					<path class="st1" d="M126.63,34.72v0.08c-2.84,2.68-5.66,5.93-7.99,9.08l0.03,0.05c1.52-1.22,2.98-2.66,4.83-3.23
						c0.62-0.1,0.94,0.33,1.22,0.79c0.1,0.06-0.03,0.22,0.11,0.27l-0.08,0.14c-1.25,1.6-2.69,2.93-3.76,4.61
						c-0.51,0.81-1.05,1.6-1.38,2.47c0.03,0.06,0.11,0.02,0.16,0.03c1.27-0.84,2.27-2.06,3.84-2.17v0.13
						c-1.52,1.05-2.65,2.33-4.14,3.42c-0.29,0.06-0.6-0.03-0.81-0.27c-0.27-0.24-0.4-0.52-0.46-0.84c0.52-2.76,2.44-4.98,4.18-7.2
						l-0.03-0.03c-3.19,1.87-5.58,4.61-7.88,7.5c-0.35,0.1-0.68-0.28-0.9-0.57V48.6c0.25-0.55,0.71-1.06,0.9-1.6
						c-1.22,0.87-2.12,1.93-3.42,2.69c-0.46-0.08-0.82-0.38-0.98-0.82c-0.08-0.87,0.52-1.46,0.79-2.17
						c1.52-2.61,3.28-5.15,5.25-7.53l-0.14-0.08c-2.54,0.17-4.88,0.25-7.39,0.38c2.63-0.59,5.6-1.17,8.53-1.41l2.09-2.28
						c0.54-0.05,1.14,0.16,1.47,0.57c-0.4,0.48-0.97,0.98-1.28,1.49c0.52,0.11,1.11-0.06,1.55,0v0.06l-1.03,1l-1.63,0.11
						c-2.57,2.76-4.72,5.9-6.58,9.05h0.16c1.28-0.98,2.66-1.84,3.92-2.81c2.88-4.01,5.86-7.8,9.46-11.27
						C125.85,33.89,126.18,34.43,126.63,34.72z"/>
				</g>
				<g>
					<path class="st0" d="M114.64,40.61c-1.41,0.54-2.62,1.62-3.77,2.7c-1.85,1.85-3.54,4.2-5.21,6.39
						c-0.29,0.06-0.51-0.08-0.71-0.22c-0.22-0.19-0.36-0.48-0.27-0.76c1.33-2.24,2.74-4.44,4.11-6.66c-0.09-0.17-0.25,0-0.38,0
						l-0.79,0.46c0.08-0.95,1.19-1.25,1.9-1.57c0.35,0.02,0.71,0.22,0.84,0.57l-0.05,0.38l-1.17,1.79h0.14
						c1.35-1.28,2.81-2.76,4.57-3.23C114.14,40.45,114.42,40.44,114.64,40.61z"/>
					<path class="st0" d="M114.64,40.61c-1.41,0.54-2.62,1.62-3.77,2.7c-1.85,1.85-3.54,4.2-5.21,6.39
						c-0.29,0.06-0.51-0.08-0.71-0.22c-0.22-0.19-0.36-0.48-0.27-0.76c1.33-2.24,2.74-4.44,4.11-6.66c-0.09-0.17-0.25,0-0.38,0
						l-0.79,0.46c0.08-0.95,1.19-1.25,1.9-1.57c0.35,0.02,0.71,0.22,0.84,0.57l-0.05,0.38l-1.17,1.79h0.14
						c1.35-1.28,2.81-2.76,4.57-3.23C114.14,40.45,114.42,40.44,114.64,40.61z"/>
				</g>
				<g>
					<path class="st0" d="M105.21,41.21c0.36-0.24,0.84-0.59,1.28-0.33c0.32,0.33,0.87,0.7,0.65,1.25
						c-0.81,2.76-2.57,5.28-4.83,7.26c-0.6,0.36-1.28,1.16-2.09,0.68c-0.51-0.35-1.17-0.9-1.22-1.59c0.05-2.04,1.08-3.96,2.36-5.64
						c0.78-0.92,1.71-1.82,2.82-2.23C104.61,40.61,104.91,40.9,105.21,41.21z M106.09,41.94c-0.33,1.66-1.35,3.09-2.36,4.46
						c-0.98,1.08-1.71,2.06-2.96,2.73c-0.14,0.02-0.32,0.02-0.35-0.14c0.21-1.79,1.2-3.25,2.17-4.72l1.17-1.41
						c-0.13,0.44-0.49,0.95-0.49,1.52c-0.08,0.36,0.09,0.63,0.38,0.81c0.09-0.02,0.21,0.03,0.27-0.05c-0.3-0.44,0.21-0.9,0.3-1.36
						c0.44-0.67,0.89-1.57,1.68-1.87L106.09,41.94z"/>
					<path class="st0" d="M105.21,41.21c0.36-0.24,0.84-0.59,1.28-0.33c0.32,0.33,0.87,0.7,0.65,1.25
						c-0.81,2.76-2.57,5.28-4.83,7.26c-0.6,0.36-1.28,1.16-2.09,0.68c-0.51-0.35-1.17-0.9-1.22-1.59c0.05-2.04,1.08-3.96,2.36-5.64
						c0.78-0.92,1.71-1.82,2.82-2.23C104.61,40.61,104.91,40.9,105.21,41.21z M106.09,41.94c-0.33,1.66-1.35,3.09-2.36,4.46
						c-0.98,1.08-1.71,2.06-2.96,2.73c-0.14,0.02-0.32,0.02-0.35-0.14c0.21-1.79,1.2-3.25,2.17-4.72l1.17-1.41
						c-0.13,0.44-0.49,0.95-0.49,1.52c-0.08,0.36,0.09,0.63,0.38,0.81c0.09-0.02,0.21,0.03,0.27-0.05c-0.3-0.44,0.21-0.9,0.3-1.36
						c0.44-0.67,0.89-1.57,1.68-1.87L106.09,41.94z"/>
				</g>
			</g>
		</g>
	</g>
	<g>
		<g>
			<path class="st2" d="M21.83,15.59v0.61h-4.49v-0.14c0-2.95-0.47-4-1.87-4c-1.82,0-2.01,1.68-2.01,6.95
				c0,5.74,0.17,7.33,2.12,7.33c1.49,0,1.93-1.46,1.93-4.74v-0.28h4.47v0.8c0,4.66-1.65,7.31-6.89,7.31
				c-5.96,0-6.42-4.44-6.42-10.37c0-5.21,0.39-10.09,6.84-10.09C19.76,8.97,21.83,10.87,21.83,15.59z"/>
			<path class="st2" d="M37.29,19.2c0,5.68-0.5,10.23-6.92,10.23c-6.18,0-6.92-4.14-6.92-10.23c0-5.96,0.66-10.23,6.92-10.23
				C36.8,8.97,37.29,13.49,37.29,19.2z M30.34,26.34c1.93,0,2.15-1.9,2.15-7.14c0-5.29-0.25-7.14-2.15-7.14
				c-1.9,0-2.1,1.93-2.1,7.14C28.25,24.44,28.44,26.34,30.34,26.34z"/>
			<path class="st2" d="M46.64,9.36l2.43,12.93h0.05l2.34-12.93h6.7v19.69h-4.3V13.71h-0.05L50.8,29.04h-3.58l-3.17-15.33h-0.05
				v15.33h-4.14V9.36H46.64z"/>
			<path class="st2" d="M68.09,9.36l2.43,12.93h0.05l2.34-12.93h6.7v19.69h-4.3V13.71h-0.05l-3.01,15.33h-3.58L65.5,13.71h-0.05
				v15.33h-4.14V9.36H68.09z"/>
			<path class="st2" d="M94.01,9.36v3.75h-6.76v3.94h6.34v3.75h-6.34v4.49h7.06v3.75H82.62V9.36H94.01z"/>
			<path class="st2" d="M104.21,9.36c3.23,0,5.27,1.71,5.27,5.16c0,2.67-0.99,4.22-3.31,4.77v0.05c2.76,0.44,3.09,1.87,3.17,4.83
				c0.11,3.8,0.22,4.36,0.88,4.63v0.25h-4.99c-0.5-0.88-0.5-2.84-0.5-4.16c0-3.34-0.55-3.97-1.93-3.97h-1.76v8.13H96.4V9.36H104.21z
				 M101.04,17.66h1.46c1.3,0,2.34-0.74,2.34-2.56c0-1.79-0.85-2.48-2.4-2.48h-1.41V17.66z"/>
			<path class="st2" d="M124.97,15.59v0.61h-4.49v-0.14c0-2.95-0.47-4-1.87-4c-1.82,0-2.01,1.68-2.01,6.95
				c0,5.74,0.17,7.33,2.12,7.33c1.49,0,1.93-1.46,1.93-4.74v-0.28h4.47v0.8c0,4.66-1.65,7.31-6.89,7.31
				c-5.96,0-6.42-4.44-6.42-10.37c0-5.21,0.39-10.09,6.84-10.09C122.9,8.97,124.97,10.87,124.97,15.59z"/>
			<path class="st2" d="M131.75,9.36v19.69h-4.63V9.36H131.75z"/>
			<path class="st2" d="M144.13,9.36l4.91,19.69h-4.8l-0.72-3.75h-4.72l-0.69,3.75h-4.8l5.02-19.69H144.13z M141.1,12.94l-1.63,8.77
				h3.36l-1.68-8.77H141.1z"/>
			<path class="st2" d="M155.16,9.36v15.94h6.7v3.75h-11.33V9.36H155.16z"/>
		</g>
		<g>
			<path class="st1" d="M177.3,14.4v0.41h-4.47c0-1.99-0.66-2.76-1.79-2.76c-1.19,0-1.85,0.69-1.85,2.12c0,1.96,1.96,2.54,3.78,3.25
				c2.34,0.91,4.69,2.01,4.69,5.76c0,4.22-2.21,6.23-6.73,6.23c-4.08,0-6.48-1.49-6.48-5.35v-1.05h4.47v0.69
				c0,1.82,0.61,2.62,2.01,2.62c1.32,0,2.1-0.83,2.1-2.34c0-1.3-0.66-2.15-3.31-3.09c-2.15-0.77-3.36-1.49-4.14-2.56
				c-0.69-0.97-1.02-2.15-1.02-3.58c0-3.34,1.85-5.79,6.45-5.79C175.12,8.97,177.3,10.85,177.3,14.4z"/>
			<path class="st1" d="M189.32,9.36l4.91,19.69h-4.8l-0.72-3.75H184l-0.69,3.75h-4.8l5.02-19.69H189.32z M186.29,12.94l-1.63,8.77
				h3.36l-1.68-8.77H186.29z"/>
			<path class="st1" d="M200.35,9.36v15.94h6.7v3.75h-11.33V9.36H200.35z"/>
			<path class="st1" d="M219.87,9.36v3.75h-6.76v3.94h6.34v3.75h-6.34v4.49h7.06v3.75h-11.69V9.36H219.87z"/>
			<path class="st1" d="M234.48,14.4v0.41h-4.47c0-1.99-0.66-2.76-1.79-2.76c-1.19,0-1.85,0.69-1.85,2.12
				c0,1.96,1.96,2.54,3.78,3.25c2.34,0.91,4.69,2.01,4.69,5.76c0,4.22-2.21,6.23-6.73,6.23c-4.08,0-6.48-1.49-6.48-5.35v-1.05h4.47
				v0.69c0,1.82,0.61,2.62,2.01,2.62c1.32,0,2.1-0.83,2.1-2.34c0-1.3-0.66-2.15-3.31-3.09c-2.15-0.77-3.36-1.49-4.14-2.56
				c-0.69-0.97-1.02-2.15-1.02-3.58c0-3.34,1.85-5.79,6.45-5.79C232.3,8.97,234.48,10.85,234.48,14.4z"/>
		</g>
	</g>
	<polygon class="st1" points="6.52,46.12 0.32,46.12 0.32,0.25 243.31,0.25 242.87,46.06 166.19,46.06 166.19,45.07 241.89,45.07 
		242.3,1.24 1.31,1.24 1.31,45.12 6.52,45.12 	"/>
</g>
</svg>
