<?xml version="1.0" encoding="utf-8"?>
<!-- Generator: Adobe Illustrator 27.4.0, SVG Export Plug-In . SVG Version: 6.00 Build 0)  -->
<svg version="1.1" id="Layer_1" xmlns="http://www.w3.org/2000/svg" xmlns:xlink="http://www.w3.org/1999/xlink" x="0px" y="0px"
	 viewBox="0 0 244 54" style="enable-background:new 0 0 244 54;" xml:space="preserve">
<style type="text/css">
	.st0{fill-rule:evenodd;clip-rule:evenodd;fill:#FFFFFF;}
	.st1{fill:#FFFFFF;}
	.st2{fill:#FFDD15;}
</style>
<g>
	<g>
		<polygon class="st0" points="41.7,40.5 41.7,39.3 40.4,39.3 40.4,36.5 39.3,36.5 39.3,40.5 		"/>
		<polygon class="st0" points="36.5,41 36.5,42.2 37.7,42.2 37.7,49.7 38.9,49.7 38.9,41 		"/>
		<polygon class="st0" points="41.7,41 41.7,42.2 40.4,42.2 40.4,49.7 39.3,49.7 39.3,41 		"/>
		<polygon class="st0" points="36.5,40.5 36.5,39.3 37.7,39.3 37.7,36.5 38.9,36.5 38.9,40.5 		"/>
		<rect x="42.1" y="36.4" class="st0" width="1.2" height="13.2"/>
		<path class="st0" d="M49,44.7v5h1.1v-5V44c0-1.8-1.5-3.2-3.2-3.2c-1.8,0-3.2,1.4-3.2,3.2v0.7v5h1.1v-5v-0.5c0-1.1,0.9-2.2,2.1-2.2
			c1.2,0,2.1,1,2.1,2.2C49,44.2,49,44.7,49,44.7z"/>
		<path class="st0" d="M51.6,49.7h-1.1c0-2.3,0-6,0-6c0-1.9-1.8-3.3-3.4-3.3c-1.5,0-2.7,0.6-3.4,2v-5.9h1.2c0,0,0,2.5,0,3.5
			c0.6-0.5,1.4-0.6,2.3-0.6c2.3,0,4.5,2,4.5,4.5L51.6,49.7L51.6,49.7z"/>
		<polygon class="st0" points="67.8,49.7 67.8,39.3 68.9,39.3 68.9,49.7 		"/>
		<path class="st0" d="M74.6,44.7v5h1.1v-5V44c0-1.8-1.4-3.2-3.2-3.2c-1.8,0-3.2,1.4-3.2,3.2v0.7v5h1.1v-5v-0.5
			c0-1.1,0.9-2.2,2.1-2.2c1.2,0,2.1,1,2.1,2.2V44.7z"/>
		<path class="st0" d="M77.3,49.7h-1.2c0-2.3,0-5.9,0-5.9c0-1.9-1.9-3.4-3.4-3.4c-1.5,0-2.8,0.7-3.4,2v-3.1h1.2c0,0,0,0,0,0.6
			c0.6-0.5,1.4-0.6,2.2-0.6c2.4,0,4.5,2,4.5,4.5C77.3,43.7,77.3,49.7,77.3,49.7z"/>
		<rect x="31" y="39.3" class="st0" width="1.1" height="10.4"/>
		<path class="st0" d="M32.5,43.1c0-1.7,0-3.8,0-3.8h1.1c0,0,0,0.5,0,1c0.9-1.1,2.5-1,2.5-1v1.2C35,40.5,33.2,41,32.5,43.1z"/>
		<path class="st0" d="M32.5,49.7c0,0,0-2.7,0-4.3c0-0.8,0.2-4.2,3.5-4.4c0,0.4,0,0.7,0,1.3c-0.8,0-2.4,0.5-2.5,3.3c0,2,0,4.1,0,4.1
			L32.5,49.7L32.5,49.7z"/>
		<polygon class="st0" points="9.1,36 11.1,36 17.5,44.3 17.5,36 18.6,36 18.6,47.7 10.3,36.7 10.3,49.7 9.1,49.7 		"/>
		<polygon class="st0" points="20.2,49.7 18.2,49.7 11.8,41.4 11.8,49.7 10.7,49.7 10.7,38 19.1,49 19.1,36 20.2,36 		"/>
		<rect x="62.3" y="39.3" class="st0" width="1.1" height="10.4"/>
		<path class="st0" d="M63.8,43.2c0-1.7,0-3.9,0-3.9h1.1c0,0,0,0.5,0,1c0.9-1.1,2.5-1,2.5-1v1.2C66.3,40.6,64.6,41,63.8,43.2z"/>
		<path class="st0" d="M63.8,49.7c0,0,0-2.7,0-4.3c0-0.8,0.2-4.2,3.6-4.4c0,0.4,0,0.7,0,1.3c-0.8,0-2.4,0.5-2.5,3.3c0,2,0,4.1,0,4.1
			L63.8,49.7L63.8,49.7z"/>
		<path class="st0" d="M21.8,44.5c0-2.1,1.7-3.8,3.8-3.8s3.8,1.7,3.8,3.8c0,2.1-1.7,3.8-3.8,3.8C23.5,48.3,21.8,46.6,21.8,44.5z
			 M23,44.5c0-1.4,1.2-2.6,2.6-2.6s2.6,1.2,2.6,2.6c0,1.4-1.2,2.6-2.6,2.6C24.2,47.1,23,46,23,44.5z"/>
		<path class="st0" d="M20.2,44.5c0-3,2.4-5.4,5.4-5.4s5.4,2.4,5.4,5.4S28.6,50,25.6,50S20.2,47.5,20.2,44.5z M21.4,44.5
			c0-2.3,1.9-4.2,4.2-4.2s4.2,1.9,4.2,4.2s-1.9,4.2-4.2,4.2S21.4,46.8,21.4,44.5z"/>
		<path class="st0" d="M53.2,44.1c0.1-1.7,1.7-3.4,3.7-3.4c1.9,0,3.5,1.5,3.8,3.4H53.2z M54.7,43.1c0.5-0.7,1.3-1.2,2.2-1.2
			c0.9,0,1.8,0.4,2.2,1.2H54.7z"/>
		<path class="st0" d="M60.1,46.5c-0.6,1.1-1.8,1.8-3.2,1.8c-2,0-3.8-1.7-3.8-3.8c0.7,0,8,0,8,0c0-2.3-1.9-4.2-4.2-4.2
			s-4.2,1.9-4.2,4.2s1.9,4.2,4.2,4.2c1.6,0,3-0.8,3.7-2.2H62c-0.7,2.1-2.8,3.5-5.1,3.5c-3,0-5.4-2.4-5.4-5.4s2.4-5.4,5.4-5.4
			c3,0,5.4,2.4,5.4,5.4c0,0.4,0,0.8-0.1,1.2h-7.5c0,0,0.5,1.4,2.2,1.4c0.6,0,1.3-0.2,1.7-0.6C58.8,46.5,60.1,46.5,60.1,46.5z"/>
	</g>
	<g>
		<rect x="124.6" y="41.8" class="st1" width="37.8" height="0.7"/>
		<rect x="124.5" y="49.4" class="st1" width="37.8" height="0.7"/>
		<path class="st0" d="M162.4,44.4l-2.5,0c0,1.6,0,2.8,0,4.2h-2.6c0-2.1,0-2.8,0-4.2h-2.4v-1.1h7.5L162.4,44.4L162.4,44.4z"/>
		<path class="st0" d="M128.5,43.2c0.6,1.1,1.2,2.3,1.8,3.4c0.1,0,1.3-2.5,1.8-3.4h4.1v5.3c-0.9,0-1.6,0-2.4,0
			c0-1.3,0.2-2.7,0.2-4.1c0,0,0,0-0.1,0c-0.8,1.2-2.4,4.1-2.4,4.1l-2.3,0c-0.8-1.4-1.4-2.7-2.2-4.1h-0.1c0,1.4,0.2,2.7,0.2,4.1
			l-2.5,0.1v-5.3C125.9,43.3,127.2,43.2,128.5,43.2z"/>
		<path class="st0" d="M151.7,43.3c1,0,2.1,0.1,2.5,1c0.2,0.7,0.1,1.5-0.3,1.8c-0.4,0.2-0.9,0.3-1.4,0.4c0,0.1,0,0.1,0.1,0.1
			c0.5,0,1.3,0.1,1.6,0.6c0.1,0.4,0,0.9,0.1,1.3h-2.6c-0.1-0.5,0.2-1.1-0.3-1.3c-0.5-0.3-1.6-0.1-2.5-0.1l0,0v1.4h-2.6v-5.3H151.7z
			 M143,43.3c0.9,1.8,1.9,3.6,2.9,5.3l-2.5,0l-0.5-0.9c-1.1,0-2.3,0-3.4,0l-0.4,0.9l-2.6,0c0.9-1.8,1.9-3.6,2.8-5.3
			C140.4,43.3,141.7,43.3,143,43.3z M142.4,46.7h-2.5l0.1-0.2l1.1-2.2C141.6,45.1,142.1,46,142.4,46.7z M150.9,44.5
			c0.1,0.1,0.3,0,0.4,0.1c0.1,0.1,0.3,0.1,0.4,0.2c0.1,0.3,0.1,0.7,0,1c-0.2,0.2-0.6,0.2-1,0.2h-1.9l0-1.5
			C149.6,44.4,150.1,44.4,150.9,44.5z"/>
		<g>
			<g>
				<path class="st0" d="M110.6,31.4c-6.4,5.7-11.6,12.7-16,19.9c-0.3-0.1-0.8-0.2-0.9-0.7l0.1-1c1-3.6,2.1-7.1,3.1-10.7l0,0
					c-3.7,4.7-7.1,9.6-10.1,14.6c-0.3-0.9,0.2-1.6,0.4-2.3c2.7-5.7,6.9-10.9,11-16c0.5,0,0.9,0.3,1.2,0.8c0.2,0.3,0,0.7,0,1
					l-2.8,8.9c0,0.1-0.1,0.2-0.1,0.3l0.1,0.1c3.8-5.2,7.6-10.8,13.1-14.4C109.9,31.7,110.2,31.5,110.6,31.4z"/>
				<path class="st0" d="M110.6,31.4c-6.4,5.7-11.6,12.7-16,19.9c-0.3-0.1-0.8-0.2-0.9-0.7l0.1-1c1-3.6,2.1-7.1,3.1-10.7l0,0
					c-3.7,4.7-7.1,9.6-10.1,14.6c-0.3-0.9,0.2-1.6,0.4-2.3c2.7-5.7,6.9-10.9,11-16c0.5,0,0.9,0.3,1.2,0.8c0.2,0.3,0,0.7,0,1
					l-2.8,8.9c0,0.1-0.1,0.2-0.1,0.3l0.1,0.1c3.8-5.2,7.6-10.8,13.1-14.4C109.9,31.7,110.2,31.5,110.6,31.4z"/>
			</g>
			<g>
				<path class="st1" d="M126.6,34.7L126.6,34.7c-2.8,2.8-5.7,6-8,9.2l0,0c1.5-1.2,3-2.7,4.8-3.2c0.6-0.1,0.9,0.3,1.2,0.8
					c0.1,0.1,0,0.2,0.1,0.3l-0.1,0.1c-1.2,1.6-2.7,2.9-3.8,4.6c-0.5,0.8-1.1,1.6-1.4,2.5c0,0.1,0.1,0,0.2,0c1.3-0.8,2.3-2.1,3.8-2.2
					V47c-1.5,1-2.7,2.3-4.1,3.4c-0.3,0.1-0.6,0-0.8-0.3c-0.3-0.2-0.4-0.5-0.5-0.8c0.5-2.8,2.4-5,4.2-7.2l0,0
					c-3.2,1.9-5.6,4.6-7.9,7.5c-0.3,0.1-0.7-0.3-0.9-0.6v-0.4c0.2-0.5,0.7-1.1,0.9-1.6c-1.2,0.9-2.1,1.9-3.4,2.7
					c-0.5-0.1-0.8-0.4-1-0.8c-0.1-0.9,0.5-1.5,0.8-2.2c1.5-2.6,3.3-5.2,5.2-7.5l-0.1-0.1c-2.5,0.2-4.9,0.2-7.4,0.4
					c2.6-0.6,5.6-1.2,8.5-1.4l2.1-2.3c0.5,0,1.1,0.2,1.5,0.6c-0.4,0.5-1,1-1.3,1.5c0.5,0.1,1.1-0.1,1.6,0v0.1l-1,1l-1.6,0.1
					c-2.6,2.8-4.7,5.9-6.6,9h0.2c1.3-1,2.7-1.8,3.9-2.8c2.9-4,5.9-7.8,9.5-11.3C125.8,33.9,126.2,34.4,126.6,34.7z"/>
				<path class="st1" d="M126.6,34.7L126.6,34.7c-2.8,2.8-5.7,6-8,9.2l0,0c1.5-1.2,3-2.7,4.8-3.2c0.6-0.1,0.9,0.3,1.2,0.8
					c0.1,0.1,0,0.2,0.1,0.3l-0.1,0.1c-1.2,1.6-2.7,2.9-3.8,4.6c-0.5,0.8-1.1,1.6-1.4,2.5c0,0.1,0.1,0,0.2,0c1.3-0.8,2.3-2.1,3.8-2.2
					V47c-1.5,1-2.7,2.3-4.1,3.4c-0.3,0.1-0.6,0-0.8-0.3c-0.3-0.2-0.4-0.5-0.5-0.8c0.5-2.8,2.4-5,4.2-7.2l0,0
					c-3.2,1.9-5.6,4.6-7.9,7.5c-0.3,0.1-0.7-0.3-0.9-0.6v-0.4c0.2-0.5,0.7-1.1,0.9-1.6c-1.2,0.9-2.1,1.9-3.4,2.7
					c-0.5-0.1-0.8-0.4-1-0.8c-0.1-0.9,0.5-1.5,0.8-2.2c1.5-2.6,3.3-5.2,5.2-7.5l-0.1-0.1c-2.5,0.2-4.9,0.2-7.4,0.4
					c2.6-0.6,5.6-1.2,8.5-1.4l2.1-2.3c0.5,0,1.1,0.2,1.5,0.6c-0.4,0.5-1,1-1.3,1.5c0.5,0.1,1.1-0.1,1.6,0v0.1l-1,1l-1.6,0.1
					c-2.6,2.8-4.7,5.9-6.6,9h0.2c1.3-1,2.7-1.8,3.9-2.8c2.9-4,5.9-7.8,9.5-11.3C125.8,33.9,126.2,34.4,126.6,34.7z"/>
			</g>
			<g>
				<path class="st0" d="M114.6,40.6c-1.4,0.5-2.6,1.6-3.8,2.7c-1.8,1.8-3.5,4.2-5.2,6.4c-0.3,0.1-0.5-0.1-0.7-0.2
					c-0.2-0.2-0.4-0.5-0.3-0.8c1.3-2.2,2.7-4.4,4.1-6.7c-0.1-0.2-0.2,0-0.4,0l-0.8,0.5c0.1-1,1.2-1.2,1.9-1.6c0.3,0,0.7,0.2,0.8,0.6
					l-0.1,0.4l-1.2,1.8h0.1c1.3-1.3,2.8-2.8,4.6-3.2C114.1,40.5,114.4,40.4,114.6,40.6z"/>
				<path class="st0" d="M114.6,40.6c-1.4,0.5-2.6,1.6-3.8,2.7c-1.8,1.8-3.5,4.2-5.2,6.4c-0.3,0.1-0.5-0.1-0.7-0.2
					c-0.2-0.2-0.4-0.5-0.3-0.8c1.3-2.2,2.7-4.4,4.1-6.7c-0.1-0.2-0.2,0-0.4,0l-0.8,0.5c0.1-1,1.2-1.2,1.9-1.6c0.3,0,0.7,0.2,0.8,0.6
					l-0.1,0.4l-1.2,1.8h0.1c1.3-1.3,2.8-2.8,4.6-3.2C114.1,40.5,114.4,40.4,114.6,40.6z"/>
			</g>
			<g>
				<path class="st0" d="M105.2,41.2c0.4-0.2,0.8-0.6,1.3-0.3c0.3,0.3,0.9,0.7,0.7,1.2c-0.8,2.8-2.6,5.3-4.8,7.3
					c-0.6,0.4-1.3,1.2-2.1,0.7c-0.5-0.3-1.2-0.9-1.2-1.6c0.1-2,1.1-4,2.4-5.6c0.8-0.9,1.7-1.8,2.8-2.2
					C104.6,40.6,104.9,40.9,105.2,41.2z M106.1,41.9c-0.3,1.7-1.3,3.1-2.4,4.5c-1,1.1-1.7,2.1-3,2.7c-0.1,0-0.3,0-0.3-0.1
					c0.2-1.8,1.2-3.2,2.2-4.7l1.2-1.4c-0.1,0.4-0.5,1-0.5,1.5c-0.1,0.4,0.1,0.6,0.4,0.8c0.1,0,0.2,0,0.3,0c-0.3-0.4,0.2-0.9,0.3-1.4
					c0.4-0.7,0.9-1.6,1.7-1.9L106.1,41.9z"/>
				<path class="st0" d="M105.2,41.2c0.4-0.2,0.8-0.6,1.3-0.3c0.3,0.3,0.9,0.7,0.7,1.2c-0.8,2.8-2.6,5.3-4.8,7.3
					c-0.6,0.4-1.3,1.2-2.1,0.7c-0.5-0.3-1.2-0.9-1.2-1.6c0.1-2,1.1-4,2.4-5.6c0.8-0.9,1.7-1.8,2.8-2.2
					C104.6,40.6,104.9,40.9,105.2,41.2z M106.1,41.9c-0.3,1.7-1.3,3.1-2.4,4.5c-1,1.1-1.7,2.1-3,2.7c-0.1,0-0.3,0-0.3-0.1
					c0.2-1.8,1.2-3.2,2.2-4.7l1.2-1.4c-0.1,0.4-0.5,1-0.5,1.5c-0.1,0.4,0.1,0.6,0.4,0.8c0.1,0,0.2,0,0.3,0c-0.3-0.4,0.2-0.9,0.3-1.4
					c0.4-0.7,0.9-1.6,1.7-1.9L106.1,41.9z"/>
			</g>
		</g>
	</g>
</g>
<g>
	<path class="st2" d="M21.8,15.6v0.6h-4.5v-0.1c0-2.9-0.5-4-1.9-4c-1.8,0-2,1.7-2,7c0,5.7,0.2,7.3,2.1,7.3c1.5,0,1.9-1.5,1.9-4.7
		v-0.3H22v0.8c0,4.7-1.6,7.3-6.9,7.3c-6,0-6.4-4.4-6.4-10.4C8.7,13.9,9.1,9,15.5,9C19.8,9,21.8,10.9,21.8,15.6z"/>
	<path class="st2" d="M37.3,19.2c0,5.7-0.5,10.2-6.9,10.2c-6.2,0-6.9-4.1-6.9-10.2c0-6,0.7-10.2,6.9-10.2
		C36.8,9,37.3,13.5,37.3,19.2z M30.3,26.3c1.9,0,2.2-1.9,2.2-7.1c0-5.3-0.2-7.1-2.1-7.1s-2.1,1.9-2.1,7.1
		C28.2,24.4,28.4,26.3,30.3,26.3z"/>
	<path class="st2" d="M46.6,9.4l2.4,12.9h0l2.3-12.9h6.7v19.7h-4.3V13.7h0l-3,15.3h-3.6l-3.2-15.3h0V29h-4.1V9.4H46.6z"/>
	<path class="st2" d="M68.1,9.4l2.4,12.9h0.1l2.3-12.9h6.7v19.7h-4.3V13.7h-0.1l-3,15.3h-3.6l-3.2-15.3h-0.1V29h-4.1V9.4H68.1z"/>
	<path class="st2" d="M94,9.4v3.8h-6.8V17h6.3v3.8h-6.3v4.5h7.1V29H82.6V9.4H94z"/>
	<path class="st2" d="M104.2,9.4c3.2,0,5.3,1.7,5.3,5.2c0,2.7-1,4.2-3.3,4.8v0c2.8,0.4,3.1,1.9,3.2,4.8c0.1,3.8,0.2,4.4,0.9,4.6V29
		h-5c-0.5-0.9-0.5-2.8-0.5-4.2c0-3.3-0.6-4-1.9-4H101V29h-4.6V9.4H104.2z M101,17.7h1.5c1.3,0,2.3-0.7,2.3-2.6
		c0-1.8-0.8-2.5-2.4-2.5H101L101,17.7L101,17.7z"/>
	<path class="st2" d="M125,15.6v0.6h-4.5v-0.1c0-2.9-0.5-4-1.9-4c-1.8,0-2,1.7-2,7c0,5.7,0.2,7.3,2.1,7.3c1.5,0,1.9-1.5,1.9-4.7
		v-0.3h4.5v0.8c0,4.7-1.7,7.3-6.9,7.3c-6,0-6.4-4.4-6.4-10.4c0-5.2,0.4-10.1,6.8-10.1C122.9,9,125,10.9,125,15.6z"/>
	<path class="st2" d="M131.8,9.4V29h-4.6V9.4H131.8z"/>
	<path class="st2" d="M144.1,9.4L149,29h-4.8l-0.7-3.8h-4.7l-0.7,3.8h-4.8l5-19.7C138.3,9.4,144.1,9.4,144.1,9.4z M141.1,12.9
		l-1.6,8.8h3.4L141.1,12.9C141.2,12.9,141.1,12.9,141.1,12.9z"/>
	<path class="st2" d="M155.2,9.4v15.9h6.7V29h-11.3V9.4H155.2z"/>
</g>
<g>
	<path class="st1" d="M177.3,14.4v0.4h-4.5c0-2-0.7-2.8-1.8-2.8c-1.2,0-1.9,0.7-1.9,2.1c0,2,2,2.5,3.8,3.2c2.3,0.9,4.7,2,4.7,5.8
		c0,4.2-2.2,6.2-6.7,6.2c-4.1,0-6.5-1.5-6.5-5.4v-1h4.5v0.7c0,1.8,0.6,2.6,2,2.6c1.3,0,2.1-0.8,2.1-2.3c0-1.3-0.7-2.1-3.3-3.1
		c-2.1-0.8-3.4-1.5-4.1-2.6c-0.7-1-1-2.1-1-3.6c0-3.3,1.9-5.8,6.4-5.8C175.1,9,177.3,10.9,177.3,14.4z"/>
	<path class="st1" d="M189.3,9.4l4.9,19.7h-4.8l-0.7-3.8H184l-0.7,3.8h-4.8l5-19.7C183.5,9.4,189.3,9.4,189.3,9.4z M186.3,12.9
		l-1.6,8.8h3.4L186.3,12.9C186.3,12.9,186.3,12.9,186.3,12.9z"/>
	<path class="st1" d="M200.4,9.4v15.9h6.7V29h-11.3V9.4H200.4z"/>
	<path class="st1" d="M219.9,9.4v3.8h-6.8V17h6.3v3.8h-6.3v4.5h7.1V29h-11.7V9.4H219.9z"/>
	<path class="st1" d="M234.5,14.4v0.4H230c0-2-0.7-2.8-1.8-2.8c-1.2,0-1.9,0.7-1.9,2.1c0,2,2,2.5,3.8,3.2c2.3,0.9,4.7,2,4.7,5.8
		c0,4.2-2.2,6.2-6.7,6.2c-4.1,0-6.5-1.5-6.5-5.4v-1h4.5v0.7c0,1.8,0.6,2.6,2,2.6c1.3,0,2.1-0.8,2.1-2.3c0-1.3-0.7-2.1-3.3-3.1
		c-2.1-0.8-3.4-1.5-4.1-2.6c-0.7-1-1-2.1-1-3.6c0-3.3,1.9-5.8,6.4-5.8C232.3,9,234.5,10.9,234.5,14.4z"/>
</g>
<polygon class="st1" points="6.5,46.1 0.3,46.1 0.3,0.2 243.3,0.2 242.9,46.1 166.2,46.1 166.2,45.1 241.9,45.1 242.3,1.2 1.3,1.2 
	1.3,45.1 6.5,45.1 "/>
</svg>
