<?xml version="1.0" encoding="utf-8"?>
<!-- Generator: Adobe Illustrator 25.2.2, SVG Export Plug-In . SVG Version: 6.00 Build 0)  -->
<svg version="1.1" id="Layer_1" xmlns="http://www.w3.org/2000/svg" xmlns:xlink="http://www.w3.org/1999/xlink" x="0px" y="0px"
	 viewBox="0 0 386 86" style="enable-background:new 0 0 386 86;" xml:space="preserve">
<style type="text/css">
	.st0{fill-rule:evenodd;clip-rule:evenodd;fill:#005CAB;}
	.st1{fill:#005CAB;}
	.st2{fill:#FFDE17;}
</style>
<g>
	<g>
		<g>
			<polygon class="st0" points="66.02,64.6 66.02,62.63 64.09,62.63 64.09,58.14 62.24,58.14 62.24,64.6 			"/>
			<polygon class="st0" points="57.85,65.3 57.85,67.27 59.75,67.27 59.75,79.04 61.6,79.04 61.6,65.3 			"/>
			<polygon class="st0" points="66.02,65.3 66.02,67.27 64.09,67.27 64.09,79.04 62.24,79.04 62.24,65.3 			"/>
			<polygon class="st0" points="57.83,64.6 57.83,62.63 59.76,62.63 59.76,58.14 61.61,58.14 61.61,64.6 			"/>
			<rect x="66.74" y="58.13" class="st0" width="1.83" height="20.91"/>
			<path class="st0" d="M77.54,71.16v7.88h1.81v-7.88v-1.11c0.05-2.87-2.29-5.07-5.07-5.07c-2.79,0-5.07,2.28-5.07,5.07v1.11v7.88
				h1.75v-7.88v-0.85c0-1.81,1.48-3.49,3.3-3.49c1.96,0.05,3.28,1.67,3.28,3.48V71.16z"/>
			<path class="st0" d="M81.78,79.04h-1.79c0-3.72,0-9.46,0-9.46c-0.05-2.98-2.9-5.18-5.33-5.26c-2.29-0.08-4.24,0.91-5.43,3.11
				v-9.31h1.83c0,0,0.02,3.93,0,5.52c0.96-0.74,2.24-1.01,3.62-1.01c3.58,0,7.09,3.16,7.09,7.04V79.04z"/>
			<polygon class="st0" points="107.32,79.03 107.32,62.64 109.15,62.64 109.12,79.03 			"/>
			<path class="st0" d="M118.12,71.16v7.88h1.81v-7.88v-1.11c0-2.9-2.29-5.07-5.07-5.07c-2.79,0-5.07,2.28-5.07,5.07v1.11v7.88h1.75
				v-7.88v-0.85c0-1.81,1.48-3.49,3.3-3.49c1.96,0.05,3.28,1.67,3.28,3.48V71.16z"/>
			<path class="st0" d="M122.41,79.04h-1.82c0-3.72,0-9.38,0-9.38c-0.05-2.98-2.95-5.37-5.38-5.37c-2.4,0-4.36,1.03-5.43,3.22v-4.86
				h1.94c0,0,0.01,0.07,0,1c0.96-0.74,2.16-1.01,3.54-1.01c3.87,0,7.14,3.16,7.14,7.04V79.04z"/>
			<rect x="49.13" y="62.64" class="st0" width="1.75" height="16.39"/>
			<path class="st0" d="M51.55,68.7c-0.01-2.67,0-6.06,0-6.06h1.71c0,0-0.01,0.84,0,1.63c1.4-1.77,3.89-1.66,3.89-1.66v1.95
				C55.43,64.59,52.71,65.37,51.55,68.7z"/>
			<path class="st0" d="M51.55,79.03c0,0,0-4.22,0-6.84c0-1.28,0.3-6.58,5.6-6.91c0,0.7,0,1.13,0,1.99
				c-1.22-0.05-3.83,0.71-3.89,5.25c0,3.2,0,6.5,0,6.5H51.55z"/>
			<polygon class="st0" points="14.58,57.44 17.73,57.44 27.89,70.49 27.89,57.42 29.64,57.42 29.64,75.94 16.41,58.6 16.41,79.03 
				14.58,79.03 			"/>
			<polygon class="st0" points="32.15,79.03 28.97,79.03 18.84,65.97 18.84,79.03 17.09,79.03 17.09,60.66 30.35,78.03 30.35,57.42 
				32.15,57.44 			"/>
			<rect x="98.67" y="62.64" class="st0" width="1.75" height="16.39"/>
			<path class="st0" d="M101.09,68.81c-0.01-2.67,0-6.17,0-6.17h1.71c0,0-0.01,0.84,0,1.63c1.4-1.77,3.89-1.66,3.89-1.66v1.95
				C105,64.66,102.22,65.39,101.09,68.81z"/>
			<path class="st0" d="M101.09,79.03c0,0,0-4.22,0-6.84c0-1.28,0.3-6.58,5.6-6.91c0,0.7,0,1.13,0,1.99
				c-1.22-0.05-3.84,0.71-3.89,5.25c0,3.2,0,6.5,0,6.5H101.09z"/>
			<path class="st0" d="M34.69,70.91c0-3.28,2.67-5.97,5.96-5.97c3.28,0,5.97,2.68,5.97,5.97c0,3.28-2.68,5.95-5.97,5.95
				C37.36,76.87,34.69,74.2,34.69,70.91z M36.57,70.9c0-2.24,1.83-4.08,4.08-4.08c2.24,0,4.08,1.84,4.08,4.08
				c0,2.25-1.84,4.08-4.08,4.08C38.4,74.98,36.57,73.15,36.57,70.9z"/>
			<path class="st0" d="M32.06,70.9c0-4.74,3.86-8.6,8.6-8.6c4.74,0,8.6,3.86,8.6,8.6c0,4.74-3.86,8.6-8.6,8.6
				C35.92,79.5,32.06,75.64,32.06,70.9z M34.05,70.91c0-3.64,2.97-6.62,6.61-6.62c3.64,0,6.61,2.98,6.61,6.62
				c0,3.64-2.97,6.61-6.61,6.61C37.01,77.52,34.05,74.55,34.05,70.91z"/>
			<path class="st0" d="M84.28,70.24c0.18-2.71,2.69-5.33,5.86-5.33c3.07,0,5.62,2.33,5.94,5.33H84.28z M86.7,68.58
				c0.72-1.14,1.99-1.87,3.45-1.87c1.37,0,2.86,0.68,3.41,1.87H86.7z"/>
			<path class="st0" d="M95.22,73.97c-0.94,1.75-2.85,2.86-5.08,2.86c-3.22,0-5.94-2.65-5.94-5.93c1.07-0.01,12.6,0,12.6,0
				c0-3.72-3.04-6.61-6.65-6.61c-3.62,0-6.58,2.97-6.58,6.59c0,3.62,2.96,6.58,6.58,6.58c2.57,0,4.71-1.32,5.84-3.49h2.15
				c-1.09,3.3-4.4,5.45-7.99,5.45c-4.75,0-8.6-3.81-8.6-8.54c0-4.74,3.85-8.6,8.6-8.6c4.74,0,8.6,3.86,8.6,8.6
				c0,0.62-0.07,1.24-0.19,1.82H86.64c0,0,0.82,2.19,3.51,2.26c1.01,0,2-0.3,2.65-0.98C93.04,73.97,95.22,73.97,95.22,73.97z"/>
		</g>
		<g>
			<rect x="197.04" y="66.64" class="st1" width="59.74" height="1.11"/>
			<rect x="196.98" y="78.67" class="st1" width="59.8" height="1.11"/>
			<path class="st0" d="M256.78,70.67l-3.93,0.01c0.04,2.59,0.01,4.41,0,6.66h-4.17c0.03-3.33,0.07-4.4,0.02-6.67l-3.79,0v-1.77
				h11.87V70.67z"/>
			<path class="st0" d="M203.25,68.88c0.94,1.78,1.85,3.57,2.87,5.31c0.11,0.05,2.12-3.96,2.76-5.34h6.41v8.39
				c-1.45-0.04-2.56,0.07-3.83,0c0.07-2.13,0.27-4.25,0.32-6.41c-0.03-0.03-0.07-0.08-0.12-0.05c-1.18,1.89-3.74,6.46-3.74,6.46
				l-3.69,0.01c-1.26-2.16-2.25-4.33-3.55-6.45h-0.09c0.04,2.16,0.3,4.28,0.38,6.45l-4.01,0.09v-8.39
				C199.25,68.91,201.16,68.86,203.25,68.88z"/>
			<path class="st0" d="M240.01,68.94c1.65,0.01,3.28,0.09,3.95,1.65c0.35,1.04,0.12,2.37-0.51,2.86c-0.67,0.36-1.43,0.48-2.18,0.64
				c-0.04,0.09,0.05,0.09,0.09,0.13c0.86-0.01,2.07,0.13,2.51,0.99c0.17,0.66,0.07,1.42,0.09,2.13h-4.17
				c-0.11-0.71,0.27-1.68-0.52-2.04c-0.85-0.5-2.58-0.15-4-0.22l-0.05,0.05v2.2l-4.19-0.01v-8.39L240.01,68.94z M226.17,68.94
				c1.5,2.82,3.08,5.62,4.57,8.41l-3.93,0.01l-0.83-1.41c-1.78-0.04-3.62-0.04-5.4,0l-0.71,1.39l-4.06,0.03
				c1.45-2.8,3.01-5.64,4.46-8.43C222.04,69.02,224.17,68.96,226.17,68.94z M225.31,74.37h-3.95l0.18-0.24l1.7-3.49
				C223.91,71.84,224.69,73.18,225.31,74.37z M238.72,70.85c0.16,0.12,0.43,0.01,0.62,0.09c0.2,0.09,0.46,0.15,0.58,0.39
				c0.13,0.48,0.17,1.05-0.03,1.52c-0.4,0.32-0.99,0.32-1.56,0.35h-3.08l0.05-2.36C236.67,70.75,237.42,70.7,238.72,70.85z"/>
			<g>
				<g>
					<path class="st0" d="M174.94,50.16c-10.1,8.97-18.34,20.09-25.25,31.39c-0.55-0.15-1.33-0.33-1.45-1.03l0.13-1.55
						c1.6-5.66,3.28-11.27,4.94-16.91l-0.05-0.05c-5.84,7.49-11.27,15.13-15.93,23.07c-0.48-1.38,0.28-2.56,0.7-3.71
						c4.31-9.02,10.87-17.19,17.34-25.2c0.75,0.08,1.48,0.5,1.85,1.2c0.25,0.48,0.05,1.03-0.05,1.5l-4.46,14.01
						c-0.05,0.17-0.13,0.37-0.18,0.55l0.13,0.13c5.94-8.19,12.08-17.01,20.62-22.75C173.81,50.59,174.34,50.31,174.94,50.16z"/>
					<path class="st0" d="M174.94,50.16c-10.1,8.97-18.34,20.09-25.25,31.39c-0.55-0.15-1.33-0.33-1.45-1.03l0.13-1.55
						c1.6-5.66,3.28-11.27,4.94-16.91l-0.05-0.05c-5.84,7.49-11.27,15.13-15.93,23.07c-0.48-1.38,0.28-2.56,0.7-3.71
						c4.31-9.02,10.87-17.19,17.34-25.2c0.75,0.08,1.48,0.5,1.85,1.2c0.25,0.48,0.05,1.03-0.05,1.5l-4.46,14.01
						c-0.05,0.17-0.13,0.37-0.18,0.55l0.13,0.13c5.94-8.19,12.08-17.01,20.62-22.75C173.81,50.59,174.34,50.31,174.94,50.16z"/>
				</g>
				<g>
					<path class="st1" d="M200.32,55.4v0.13c-4.48,4.23-8.94,9.37-12.63,14.36l0.05,0.08c2.41-1.93,4.71-4.21,7.64-5.11
						c0.98-0.15,1.48,0.53,1.93,1.25c0.15,0.1-0.05,0.35,0.18,0.43l-0.13,0.23c-1.98,2.53-4.26,4.63-5.94,7.29
						c-0.8,1.28-1.65,2.53-2.18,3.91c0.05,0.1,0.18,0.02,0.25,0.05c2-1.33,3.58-3.26,6.06-3.43v0.2c-2.41,1.65-4.18,3.68-6.54,5.41
						c-0.45,0.1-0.95-0.05-1.28-0.43c-0.43-0.38-0.63-0.83-0.73-1.33c0.83-4.36,3.86-7.87,6.61-11.38L193.58,67
						c-5.03,2.96-8.82,7.29-12.45,11.85c-0.55,0.15-1.08-0.45-1.43-0.9v-0.6c0.4-0.88,1.13-1.68,1.43-2.53
						c-1.93,1.38-3.36,3.06-5.41,4.26c-0.73-0.12-1.3-0.6-1.55-1.3c-0.13-1.38,0.83-2.3,1.25-3.43c2.41-4.13,5.19-8.14,8.29-11.9
						l-0.22-0.13c-4.01,0.28-7.72,0.4-11.68,0.6c4.16-0.93,8.84-1.86,13.48-2.23l3.31-3.61c0.85-0.08,1.8,0.25,2.33,0.9
						c-0.63,0.75-1.53,1.55-2.03,2.35c0.83,0.18,1.75-0.1,2.46,0v0.1l-1.63,1.58l-2.58,0.18c-4.06,4.36-7.47,9.32-10.4,14.3h0.25
						c2.03-1.55,4.21-2.91,6.19-4.43c4.56-6.34,9.27-12.33,14.96-17.81C199.09,54.09,199.61,54.94,200.32,55.4z"/>
					<path class="st1" d="M200.32,55.4v0.13c-4.48,4.23-8.94,9.37-12.63,14.36l0.05,0.08c2.41-1.93,4.71-4.21,7.64-5.11
						c0.98-0.15,1.48,0.53,1.93,1.25c0.15,0.1-0.05,0.35,0.18,0.43l-0.13,0.23c-1.98,2.53-4.26,4.63-5.94,7.29
						c-0.8,1.28-1.65,2.53-2.18,3.91c0.05,0.1,0.18,0.02,0.25,0.05c2-1.33,3.58-3.26,6.06-3.43v0.2c-2.41,1.65-4.18,3.68-6.54,5.41
						c-0.45,0.1-0.95-0.05-1.28-0.43c-0.43-0.38-0.63-0.83-0.73-1.33c0.83-4.36,3.86-7.87,6.61-11.38L193.58,67
						c-5.03,2.96-8.82,7.29-12.45,11.85c-0.55,0.15-1.08-0.45-1.43-0.9v-0.6c0.4-0.88,1.13-1.68,1.43-2.53
						c-1.93,1.38-3.36,3.06-5.41,4.26c-0.73-0.12-1.3-0.6-1.55-1.3c-0.13-1.38,0.83-2.3,1.25-3.43c2.41-4.13,5.19-8.14,8.29-11.9
						l-0.22-0.13c-4.01,0.28-7.72,0.4-11.68,0.6c4.16-0.93,8.84-1.86,13.48-2.23l3.31-3.61c0.85-0.08,1.8,0.25,2.33,0.9
						c-0.63,0.75-1.53,1.55-2.03,2.35c0.83,0.18,1.75-0.1,2.46,0v0.1l-1.63,1.58l-2.58,0.18c-4.06,4.36-7.47,9.32-10.4,14.3h0.25
						c2.03-1.55,4.21-2.91,6.19-4.43c4.56-6.34,9.27-12.33,14.96-17.81C199.09,54.09,199.61,54.94,200.32,55.4z"/>
				</g>
				<g>
					<path class="st0" d="M181.38,64.72c-2.23,0.85-4.13,2.56-5.96,4.26c-2.93,2.93-5.59,6.64-8.24,10.1
						c-0.45,0.1-0.8-0.12-1.13-0.35c-0.35-0.3-0.58-0.75-0.43-1.2c2.1-3.53,4.33-7.02,6.49-10.52c-0.15-0.28-0.4,0-0.6,0l-1.25,0.73
						c0.13-1.5,1.88-1.98,3.01-2.48c0.55,0.02,1.13,0.35,1.33,0.9l-0.08,0.6l-1.85,2.83h0.23c2.13-2.03,4.43-4.36,7.22-5.11
						C180.57,64.47,181.03,64.44,181.38,64.72z"/>
					<path class="st0" d="M181.38,64.72c-2.23,0.85-4.13,2.56-5.96,4.26c-2.93,2.93-5.59,6.64-8.24,10.1
						c-0.45,0.1-0.8-0.12-1.13-0.35c-0.35-0.3-0.58-0.75-0.43-1.2c2.1-3.53,4.33-7.02,6.49-10.52c-0.15-0.28-0.4,0-0.6,0l-1.25,0.73
						c0.13-1.5,1.88-1.98,3.01-2.48c0.55,0.02,1.13,0.35,1.33,0.9l-0.08,0.6l-1.85,2.83h0.23c2.13-2.03,4.43-4.36,7.22-5.11
						C180.57,64.47,181.03,64.44,181.38,64.72z"/>
				</g>
				<g>
					<path class="st0" d="M166.47,65.67c0.58-0.38,1.33-0.93,2.03-0.53c0.5,0.53,1.38,1.1,1.03,1.98
						c-1.28,4.36-4.06,8.34-7.64,11.48c-0.95,0.58-2.03,1.83-3.31,1.08c-0.8-0.55-1.85-1.43-1.93-2.51c0.07-3.23,1.7-6.26,3.73-8.92
						c1.23-1.45,2.71-2.88,4.46-3.53C165.52,64.72,165.99,65.17,166.47,65.67z M167.85,66.82c-0.53,2.63-2.13,4.89-3.73,7.04
						c-1.55,1.7-2.71,3.26-4.68,4.31c-0.23,0.02-0.5,0.02-0.55-0.22c0.33-2.83,1.9-5.14,3.43-7.47l1.85-2.23
						c-0.2,0.7-0.78,1.5-0.78,2.41c-0.13,0.58,0.15,1,0.6,1.28c0.15-0.03,0.33,0.05,0.43-0.08c-0.48-0.7,0.33-1.43,0.48-2.15
						c0.7-1.05,1.4-2.48,2.66-2.96L167.85,66.82z"/>
					<path class="st0" d="M166.47,65.67c0.58-0.38,1.33-0.93,2.03-0.53c0.5,0.53,1.38,1.1,1.03,1.98
						c-1.28,4.36-4.06,8.34-7.64,11.48c-0.95,0.58-2.03,1.83-3.31,1.08c-0.8-0.55-1.85-1.43-1.93-2.51c0.07-3.23,1.7-6.26,3.73-8.92
						c1.23-1.45,2.71-2.88,4.46-3.53C165.52,64.72,165.99,65.17,166.47,65.67z M167.85,66.82c-0.53,2.63-2.13,4.89-3.73,7.04
						c-1.55,1.7-2.71,3.26-4.68,4.31c-0.23,0.02-0.5,0.02-0.55-0.22c0.33-2.83,1.9-5.14,3.43-7.47l1.85-2.23
						c-0.2,0.7-0.78,1.5-0.78,2.41c-0.13,0.58,0.15,1,0.6,1.28c0.15-0.03,0.33,0.05,0.43-0.08c-0.48-0.7,0.33-1.43,0.48-2.15
						c0.7-1.05,1.4-2.48,2.66-2.96L167.85,66.82z"/>
				</g>
			</g>
		</g>
	</g>
	<g>
		<path class="st2" d="M34.67,25.17v0.96h-7.1v-0.22c0-4.66-0.74-6.32-2.96-6.32c-2.88,0-3.18,2.66-3.18,10.98
			c0,9.06,0.26,11.59,3.36,11.59c2.35,0,3.05-2.31,3.05-7.5v-0.44h7.06v1.26c0,7.37-2.61,11.55-10.9,11.55
			c-9.41,0-10.15-7.02-10.15-16.39c0-8.24,0.61-15.95,10.81-15.95C31.41,14.71,34.67,17.71,34.67,25.17z"/>
		<path class="st2" d="M59.12,30.87c0,8.98-0.78,16.17-10.94,16.17c-9.76,0-10.94-6.54-10.94-16.17c0-9.41,1.05-16.17,10.94-16.17
			C58.34,14.71,59.12,21.85,59.12,30.87z M48.14,42.16c3.05,0,3.4-3.01,3.4-11.29c0-8.37-0.39-11.29-3.4-11.29
			c-3.01,0-3.31,3.05-3.31,11.29C44.83,39.15,45.13,42.16,48.14,42.16z"/>
		<path class="st2" d="M73.89,15.32l3.83,20.44h0.09l3.7-20.44h10.59v31.12h-6.8V22.2h-0.09l-4.75,24.23h-5.67L69.8,22.2h-0.09
			v24.23h-6.54V15.32H73.89z"/>
		<path class="st2" d="M107.79,15.32l3.83,20.44h0.09l3.7-20.44h10.59v31.12h-6.8V22.2h-0.09l-4.75,24.23h-5.67L103.7,22.2h-0.09
			v24.23h-6.54V15.32H107.79z"/>
		<path class="st2" d="M148.76,15.32v5.93h-10.68v6.23h10.02v5.93h-10.02v7.1h11.16v5.93h-18.48V15.32H148.76z"/>
		<path class="st2" d="M164.88,15.32c5.1,0,8.32,2.7,8.32,8.15c0,4.23-1.57,6.67-5.23,7.54v0.09c4.36,0.7,4.88,2.96,5.01,7.63
			c0.17,6.01,0.35,6.89,1.39,7.32v0.39h-7.89c-0.78-1.39-0.78-4.49-0.78-6.58c0-5.27-0.87-6.28-3.05-6.28h-2.79v12.86h-7.32V15.32
			H164.88z M159.87,28.43h2.31c2.05,0,3.7-1.18,3.7-4.05c0-2.83-1.35-3.92-3.79-3.92h-2.22V28.43z"/>
		<path class="st2" d="M197.69,25.17v0.96h-7.1v-0.22c0-4.66-0.74-6.32-2.96-6.32c-2.88,0-3.18,2.66-3.18,10.98
			c0,9.06,0.26,11.59,3.36,11.59c2.35,0,3.05-2.31,3.05-7.5v-0.44h7.06v1.26c0,7.37-2.62,11.55-10.9,11.55
			c-9.41,0-10.15-7.02-10.15-16.39c0-8.24,0.61-15.95,10.81-15.95C194.42,14.71,197.69,17.71,197.69,25.17z"/>
		<path class="st2" d="M208.41,15.32v31.12h-7.32V15.32H208.41z"/>
		<path class="st2" d="M227.98,15.32l7.76,31.12h-7.58l-1.13-5.93h-7.45l-1.09,5.93h-7.58l7.93-31.12H227.98z M223.18,20.98
			l-2.57,13.86h5.32l-2.66-13.86H223.18z"/>
		<path class="st2" d="M245.41,15.32V40.5H256v5.93h-17.91V15.32H245.41z"/>
	</g>
	<g>
		<path class="st1" d="M280.4,23.29v0.65h-7.06c0-3.14-1.05-4.36-2.83-4.36c-1.87,0-2.92,1.09-2.92,3.36c0,3.09,3.09,4.01,5.97,5.14
			c3.7,1.44,7.41,3.18,7.41,9.11c0,6.67-3.49,9.85-10.63,9.85c-6.45,0-10.24-2.35-10.24-8.45v-1.66h7.06v1.09
			c0,2.88,0.96,4.14,3.18,4.14c2.09,0,3.31-1.31,3.31-3.7c0-2.05-1.04-3.4-5.23-4.88c-3.4-1.22-5.32-2.35-6.54-4.05
			c-1.09-1.53-1.61-3.4-1.61-5.67c0-5.27,2.92-9.15,10.2-9.15C276.96,14.71,280.4,17.67,280.4,23.29z"/>
		<path class="st1" d="M299.4,15.32l7.76,31.12h-7.58l-1.13-5.93h-7.45l-1.09,5.93h-7.58l7.93-31.12H299.4z M294.61,20.98
			l-2.57,13.86h5.32l-2.66-13.86H294.61z"/>
		<path class="st1" d="M316.83,15.32V40.5h10.59v5.93h-17.91V15.32H316.83z"/>
		<path class="st1" d="M347.68,15.32v5.93H337v6.23h10.02v5.93H337v7.1h11.16v5.93h-18.48V15.32H347.68z"/>
		<path class="st1" d="M370.78,23.29v0.65h-7.06c0-3.14-1.05-4.36-2.83-4.36c-1.87,0-2.92,1.09-2.92,3.36
			c0,3.09,3.09,4.01,5.97,5.14c3.7,1.44,7.41,3.18,7.41,9.11c0,6.67-3.49,9.85-10.63,9.85c-6.45,0-10.24-2.35-10.24-8.45v-1.66h7.06
			v1.09c0,2.88,0.96,4.14,3.18,4.14c2.09,0,3.31-1.31,3.31-3.7c0-2.05-1.04-3.4-5.23-4.88c-3.4-1.22-5.32-2.35-6.54-4.05
			c-1.09-1.53-1.61-3.4-1.61-5.67c0-5.27,2.92-9.15,10.2-9.15C367.33,14.71,370.78,17.67,370.78,23.29z"/>
	</g>
	<polygon class="st1" points="10.49,73.42 0.68,73.42 0.68,0.92 384.74,0.92 384.04,73.33 262.85,73.33 262.85,71.75 382.48,71.75 
		383.14,2.49 2.25,2.49 2.25,71.84 10.49,71.84 	"/>
</g>
</svg>
