<?xml version="1.0" encoding="utf-8"?>
<!-- Generator: Adobe Illustrator 27.3.1, SVG Export Plug-In . SVG Version: 6.00 Build 0)  -->
<svg version="1.1" xmlns="http://www.w3.org/2000/svg" xmlns:xlink="http://www.w3.org/1999/xlink" x="0px" y="0px"
	 viewBox="0 0 82 69" style="enable-background:new 0 0 82 69;" xml:space="preserve">
<style type="text/css">
	.st0{display:none;}
	.st1{display:inline;fill:#0DAA00;}
	.st2{display:inline;}
	.st3{fill:none;stroke:#1E4280;stroke-width:2.0386;stroke-linecap:round;stroke-linejoin:round;stroke-miterlimit:22.9256;}
	.st4{fill:none;stroke:#1E4280;stroke-width:1.9581;stroke-linecap:round;stroke-linejoin:round;stroke-miterlimit:22.9256;}
	.st5{fill:#1E4280;}
	.st6{fill:none;}
	.st7{display:inline;fill:none;stroke:#1E4280;stroke-width:2.1137;stroke-miterlimit:10;}
	.st8{fill:none;stroke:#1E4280;stroke-width:2.0822;stroke-linecap:round;stroke-linejoin:round;stroke-miterlimit:22.9256;}
	.st9{fill:#005CAB;}
	.st10{fill:none;stroke:#005CAB;stroke-width:1.7674;stroke-linecap:round;stroke-linejoin:round;stroke-miterlimit:10;}
</style>
<g id="background" class="st0">
	<rect y="0" class="st1" width="82" height="69"/>
</g>
<g id="fireworks" class="st0">
	<g class="st2">
		<path class="st3" d="M3,8.1h9.7v5.7c0,2.6,2.1,4.6,4.6,4.6c2.6,0,4.6-2.1,4.6-4.6V8.1h16.2v5.7c0,2.6,2.1,4.6,4.6,4.6
			s4.6-2.1,4.6-4.6V8.1H57c0.6,0,1,0.5,1,1v20.1c-1-0.4-2.1-0.8-3.3-1v-6.6c0-0.3-0.3-0.6-0.6-0.6H5.8c-0.3,0-0.6,0.3-0.6,0.6v27.8
			c0,0.3,0.3,0.6,0.6,0.6h26.3c0.2,1.1,0.5,2.2,0.9,3.3H3c-0.6,0-1-0.5-1-1V9.2C2,8.6,2.4,8.1,3,8.1L3,8.1z"/>
		<path class="st3" d="M39.7,4.7c0-1.6,1.3-3,3-3c1.6,0,3,1.3,3,3v9.1c0,1.6-1.3,3-3,3c-1.6,0-3-1.3-3-3V4.7L39.7,4.7z"/>
		<path class="st3" d="M14.3,4.7c0-1.6,1.3-3,3-3c1.6,0,3,1.3,3,3v9.1c0,1.6-1.3,3-3,3s-3-1.3-3-3L14.3,4.7L14.3,4.7z"/>
		<path class="st4" d="M38.9,25.1h9.9V28c-2.6,0.3-5,1.1-7.1,2.3h-2.8V25.1L38.9,25.1z"/>
		<path class="st4" d="M25,41h7.8c-0.5,1.6-0.9,3.4-0.9,5.1H25V41L25,41z"/>
		<path class="st4" d="M25,33.1H35v3.5c-0.3,0.5-0.7,1.1-1,1.6h-9V33.1L25,33.1z"/>
		<polygon class="st4" points="25,25.1 35,25.1 35,30.3 25,30.3 		"/>
		<polygon class="st4" points="11.2,41 21.1,41 21.1,46.1 11.2,46.1 		"/>
		<polygon class="st4" points="11.2,33.1 21.1,33.1 21.1,38.2 11.2,38.2 		"/>
		<g>
			<g>
				<path class="st5" d="M58.4,57.9l-8.5-8.1c-0.1-0.1-0.2-0.3-0.2-0.5c0-0.2,0.1-0.4,0.2-0.5l15.8-16.7c0.3-0.3,0.7-0.3,1,0
					l8.5,8.1c0.1,0.1,0.2,0.3,0.2,0.5c0,0.2-0.1,0.4-0.2,0.5L59.3,57.9c-0.1,0.1-0.3,0.2-0.5,0.2c-0.1,0-0.1,0-0.2,0
					C58.5,58,58.4,58,58.4,57.9z M66.1,33.6L51.3,49.3l7.5,7.2l14.9-15.7L66.1,33.6z"/>
			</g>
			<g>
				<path class="st5" d="M75.4,42.4L64.4,32c-0.2-0.2-0.3-0.4-0.2-0.7s0.2-0.4,0.5-0.5l14.5-4.3c0.2-0.1,0.5,0,0.7,0.2
					s0.3,0.4,0.2,0.7L76.5,42c-0.1,0.2-0.2,0.4-0.5,0.5c-0.1,0-0.3,0-0.4,0C75.6,42.5,75.4,42.5,75.4,42.4z M66.2,31.8l9.2,8.7
					l3-12.4L66.2,31.8z"/>
			</g>
			<g>
				
					<rect x="65.4" y="34.7" transform="matrix(0.3042 -0.9526 0.9526 0.3042 6.6787 91.5992)" class="st5" width="1.4" height="13.1"/>
			</g>
			<g>
				
					<rect x="61.8" y="38.5" transform="matrix(0.3042 -0.9526 0.9526 0.3042 0.5717 90.8212)" class="st5" width="1.4" height="13.1"/>
			</g>
			<g>
				
					<rect x="58.2" y="42.3" transform="matrix(0.3042 -0.9526 0.9526 0.3042 -5.5244 90.0397)" class="st5" width="1.4" height="13.1"/>
			</g>
			<g>
				
					<rect x="44" y="51.3" transform="matrix(0.6879 -0.7258 0.7258 0.6879 -22.8705 50.8653)" class="st5" width="7.5" height="1.4"/>
			</g>
			<g>
				
					<rect x="41.2" y="56.9" transform="matrix(0.688 -0.7257 0.7257 0.688 -28.5061 48.7867)" class="st5" width="2.6" height="1.4"/>
			</g>
			<g>
				
					<rect x="40" y="54.2" transform="matrix(0.9996 -2.680109e-02 2.680109e-02 0.9996 -1.4554 1.1262)" class="st5" width="2.6" height="1.4"/>
			</g>
			<g>
				
					<rect x="41.7" y="50.8" transform="matrix(0.6879 -0.7258 0.7258 0.6879 -24.6046 46.9932)" class="st5" width="1.4" height="2.6"/>
			</g>
			<g>
				
					<rect x="47.2" y="56.1" transform="matrix(0.6879 -0.7258 0.7258 0.6879 -26.7026 52.6863)" class="st5" width="1.4" height="2.6"/>
			</g>
			<g>
				
					<rect x="44.5" y="57.3" transform="matrix(0.9996 -2.660123e-02 2.660123e-02 0.9996 -1.5425 1.2238)" class="st5" width="1.4" height="2.6"/>
			</g>
		</g>
		<path class="st6" d="M40.7,59.3c0.1,0.1,0.2,0.2,0.3,0.3l0-0.6L40.7,59.3z"/>
		<path class="st5" d="M69.8,50.1L69.5,50l-0.9,1c-0.9,8-7.7,14.2-16,14.2c-3.7,0-7-1.2-9.7-3.3h-0.1v-0.1c-0.1-0.1-0.2-0.2-0.3-0.3
			l-0.2,0.2l-3.8-3.6l0.5-0.5l-0.7,0l0-1.5c-1-2.1-1.6-4.5-1.6-7c0-8.9,7.2-16.1,16.1-16.1c2.8,0,5.4,0.7,7.7,1.9l1.4-1.5
			C59,31.9,55.9,31,52.6,31c-10,0-18.1,8.1-18.1,18.1s8.1,18.1,18.1,18.1s18.1-8.1,18.1-18.1c0-0.1,0-0.2,0-0.4l-0.8,0.8L69.8,50.1z
			"/>
		<path class="st5" d="M41,59.7h0.1c0,0-0.1-0.1-0.1-0.1V59.7z"/>
	</g>
</g>
<g id="transsportation" class="st0">
	<path class="st7" d="M46.5,21.6c1.2-1,2.9-1.5,4.9-1.5l6.9,0l3-1.7l11.8,6.1l0.9,5l-1.8,1.1c-2.1-1-4.4-1.6-6.9-1.6
		c-8.1,0-14.7,6.1-15.5,14c0,1-0.5,1.6-1.8,1.6H34.1c-1.1-0.1-1.7-0.6-1.7-1.7C31.6,35,24.9,29,16.9,29c0,0-0.1,0-0.1,0H6.1
		l-2.4-1.4l1.2-5.1l2.4,0l0.6-2.3h12.9l2.7,2.9c7,1.3,13.8,2.4,18.3,1.4C44.6,23.9,44.5,23.3,46.5,21.6L46.5,21.6z M58.2,19
		l-1.6-4.4c-0.1-0.2-0.3-0.4-1-0.4l-5.2-0.6c-1-0.1-1.1-2.7,0.3-2.6l5.2,0.6c1.8,0.2,2.5,0.2,3.2,2.2l1.4,3.9L58.2,19L58.2,19z
		 M15.7,31.7c7.3,0,13.2,5.9,13.2,13.2c0,7.3-5.9,13.2-13.2,13.2C8.4,58.2,2.5,52.3,2.5,45C2.5,37.6,8.4,31.7,15.7,31.7L15.7,31.7z
		 M15.7,39.3c3.1,0,5.7,2.5,5.7,5.7c0,3.1-2.5,5.7-5.7,5.7S10,48.1,10,45C10,41.8,12.6,39.3,15.7,39.3L15.7,39.3z M66,31.7
		c7.3,0,13.2,5.9,13.2,13.2c0,7.3-5.9,13.2-13.2,13.2c-7.3,0-13.2-5.9-13.2-13.2C52.8,37.6,58.7,31.7,66,31.7L66,31.7z M66,39.2
		c3.1,0,5.7,2.5,5.7,5.7c0,3.1-2.5,5.7-5.7,5.7c-3.1,0-5.7-2.5-5.7-5.7C60.3,41.8,62.8,39.2,66,39.2L66,39.2z"/>
</g>
<g id="special_Order_box" class="st0">
	<g class="st2">
		<polygon class="st8" points="39.6,27 49.8,37 78.8,32.5 68.5,22.5 		"/>
		<polygon class="st8" points="42.1,15.8 31.9,5.8 2.9,10.3 13.1,20.3 		"/>
		<polygon class="st8" points="39.6,28.9 39.6,63.2 68.7,56.5 68.7,35.4 49.4,38.4 		"/>
		<polygon class="st8" points="27.9,38.4 13.1,35.5 13.1,55.8 37.3,63.2 37.3,28.9 28.4,37.8 		"/>
		<polygon class="st8" points="3.1,32.2 27.4,36.9 27.4,36.9 37.3,27 13.1,22.1 		"/>
		<polygon class="st8" points="69.2,20.5 79.1,10.7 54.8,5.8 44.8,15.8 69.2,20.6 		"/>
	</g>
</g>
<g id="schoolBook" class="st0">
	<g class="st2">
		<polygon class="st9" points="44.1,17.6 42.8,27.7 39.9,50.3 		"/>
		<polygon class="st9" points="44.1,17.6 44.1,17.5 44.1,17.5 		"/>
		<polygon class="st9" points="42.8,27.7 41.5,37.4 39.5,53.4 39.9,50.3 		"/>
		<path class="st9" d="M44.1,17.6l-1.3,10.1L44.1,17.6z"/>
		<polygon class="st9" points="44.1,17.6 44.1,17.6 44.1,17.5 44.1,17.5 41.5,37.4 42.8,27.7 		"/>
		<path class="st9" d="M80,19.2l-0.8-0.1l0.2-1.6c0.1-0.7-0.4-1.3-1.1-1.4c-1-0.1-2.1-0.3-3-0.4l0.4-3c0-0.4-0.1-0.7-0.3-1
			c-0.2-0.3-0.5-0.4-0.9-0.4c-3.4-0.4-6.6-0.6-9.7-0.6c-12.2,0-18.6,3.4-20.9,5C41.4,12.8,33.7,6,15.3,3.6c-0.1,0-0.1,0-0.2,0
			c-0.3,0-0.5,0.1-0.8,0.3C14,4,13.8,4.4,13.8,4.7l-0.4,3c-1-0.2-2.1-0.3-3-0.4c-0.1,0-0.1,0-0.2,0c-0.3,0-0.5,0.1-0.8,0.3
			C9.2,7.9,9,8.1,9,8.5l-0.3,1.6L7.9,10c-0.1,0-0.1,0-0.2,0c-0.3,0-0.5,0.1-0.8,0.3c-0.3,0.2-0.4,0.4-0.4,0.8L0.9,54.7
			C0.8,55.4,1.3,56,2,56.1c24.3,3.1,34.9,5.8,35.7,6c0.1,0,0.3,0.1,0.4,0.1l0,0l0,0c0,0,0,0,0.1,0c2,0,13,0.3,36,3.2
			c0.1,0,0.1,0,0.2,0c0.3,0,0.5-0.1,0.8-0.3c0.3-0.2,0.4-0.5,0.4-0.8l5.6-43.6C81.2,19.9,80.7,19.3,80,19.2z M74,19.6l0.1-0.5
			l0.3-1.8c1.1,0.1,2.1,0.3,3.2,0.4l-0.3,1.8l-0.1,0.5l-0.1,0.5L72,60.1c-8.4-1.1-15-1.4-20-1.4c-5.2,0-8.8,0.4-11.1,0.7
			c1.1-0.5,2.5-1.2,4.3-1.8c4.4-1.4,12.1-2.8,23.4-1.3c0.2,0,0.3,0,0.4-0.1c0.1-0.1,0.2-0.2,0.2-0.4L73.8,20L74,19.6z M2.8,54.2
			l5.5-42.4c0.4,0,0.7,0.1,1.1,0.1L4.1,51.9c0,0.2,0,0.3,0.1,0.4s0.2,0.2,0.4,0.2c15.2,2,24.1,4.6,28.8,6.5
			C28,58,18.2,56.2,2.8,54.2z M5.3,51.6L10.4,12l0.1-0.5l0.1-0.5l0.3-1.8C12,9.3,13,9.4,14,9.6l-0.3,1.8l-0.1,0.5l-0.1,0.5L9,48.2
			c0,0.2,0,0.3,0.1,0.4s0.2,0.2,0.4,0.2c11.3,1.4,18.4,4.6,22.3,7.1c1.6,1,2.9,2,3.8,2.8C31.3,56.9,22.3,53.8,5.3,51.6z M37.7,59.3
			L37.7,59.3L37.7,59.3L37.7,59.3c-2.3-2.6-9.8-9.1-27.5-11.5l4.5-35.3l0.1-0.5l0.1-0.5l0.3-1.8l0.2-1.1l0.4-3.3
			c11,1.5,17.9,4.6,21.7,7.1c1.6,1,2.9,2,3.8,2.8c0.4,0.4,0.8,0.7,1.1,1c0.3,0.3,0.4,0.5,0.6,0.7c0.1,0.2,0.2,0.3,0.3,0.4l0,0
			L37.7,59.3z M38.8,58.9l1.1-8.7l-0.4,3.1l2.1-16.1l2.7-19.7l0,0l0,0v-0.2c0.1-0.1,0.2-0.2,0.4-0.3s0.4-0.3,0.6-0.4
			c0.1,0,0.1-0.1,0.2-0.1c0.4-0.2,0.8-0.4,1.3-0.7c1.1-0.5,2.5-1.2,4.3-1.8c4.3-1.3,11.8-2.7,22.9-1.3l-0.4,3.3l-0.1,0.5l-0.1,0.5
			L72.8,19l-0.1,0.5l0.1,0.5l-4.6,35.2c-17.8-2.1-26.6,2.3-29.5,4.2V58.9z M74.2,63.9c-19-2.4-29.8-3-34-3.2
			c0.7-0.2,1.6-0.3,2.8-0.4c5-0.6,14.3-1,29.5,1h0.1c0.1,0,0.3,0,0.4-0.1s0.2-0.2,0.2-0.4l5.2-40.1l0.1-0.5c0.5,0.1,1.1,0.1,1.6,0.2
			L74.2,63.9z"/>
		<g>
			<g>
				<path class="st9" d="M40,24.2c-0.1,0-0.2,0-0.3-0.1c-2.6-1.8-5.3-3.3-8.1-4.6c-4.6-2.1-9.3-3.6-14.3-4.5
					c-0.3-0.1-0.5-0.4-0.4-0.6s0.4-0.5,0.6-0.4c5.1,0.9,9.9,2.4,14.6,4.6c2.9,1.3,5.6,2.9,8.3,4.7c0.3,0.2,0.3,0.5,0.2,0.8
					C40.4,24.1,40.2,24.2,40,24.2z"/>
				<path class="st9" d="M38.6,28.1c-0.1,0-0.2,0-0.3-0.1c-2.6-1.8-5.3-3.3-8.1-4.6c-4.6-2.1-9.3-3.6-14.3-4.5
					c-0.3-0.1-0.5-0.4-0.4-0.6c0.1-0.3,0.4-0.5,0.6-0.4c5.1,0.9,9.9,2.4,14.6,4.6c2.9,1.3,5.6,2.9,8.3,4.7c0.3,0.2,0.3,0.5,0.2,0.8
					C38.9,28,38.8,28.1,38.6,28.1z"/>
				<path class="st9" d="M40,20c-0.1,0-0.2,0-0.3-0.1c-2.6-1.8-5.3-3.3-8.1-4.6c-4.6-2.1-9.3-3.6-14.3-4.5c-0.3-0.1-0.5-0.4-0.4-0.6
					s0.4-0.5,0.6-0.4c5.1,0.9,9.9,2.4,14.6,4.6c2.9,1.3,5.6,2.9,8.3,4.7c0.3,0.2,0.3,0.5,0.2,0.8C40.4,19.9,40.2,20,40,20z"/>
				<path class="st9" d="M27.3,27c-0.1,0-0.2,0-0.3-0.1c-1.3-0.7-2.9-1.3-4.3-1.9c-1.7-0.5-3.4-0.9-5.2-1.1c-0.3,0-0.5-0.3-0.4-0.6
					c0-0.3,0.3-0.5,0.6-0.4c1.9,0.2,3.7,0.5,5.5,1.2c1.5,0.5,3,1.2,4.5,2c0.3,0.2,0.4,0.4,0.2,0.7C27.7,26.9,27.5,27,27.3,27z"/>
			</g>
			<g>
				<path class="st9" d="M36.6,43.2c-0.1,0-0.2,0-0.3-0.1c-2.8-1.7-5.7-3.1-8.8-4.2c-4-1.4-8.2-2.3-12.5-2.7c-0.3,0-0.5-0.3-0.5-0.6
					c0-0.3,0.3-0.5,0.6-0.5c4.4,0.4,8.7,1.3,12.8,2.8c3.1,1.2,6.2,2.6,8.9,4.3c0.3,0.2,0.4,0.5,0.2,0.7C37,43.1,36.8,43.2,36.6,43.2
					z"/>
				<path class="st9" d="M34.9,49.5c-0.1,0-0.2,0-0.3-0.1c-2.5-1.6-5.2-2.9-8-3.9c-3.9-1.4-8-2.1-12.2-2.2c-0.3,0-0.5-0.3-0.5-0.5
					s0.3-0.5,0.5-0.5l0,0c4.3,0.1,8.6,0.9,12.6,2.3c2.9,1,5.6,2.3,8.2,4c0.3,0.2,0.4,0.5,0.2,0.7C35.3,49.4,35.1,49.5,34.9,49.5z"/>
				<path class="st9" d="M34.9,46.1c-0.1,0-0.2,0-0.3-0.1c-2.5-1.6-5.2-2.9-8-3.9c-3.9-1.4-8-2.1-12.2-2.2c-0.3,0-0.5-0.3-0.5-0.5
					s0.3-0.5,0.5-0.5l0,0c4.3,0.1,8.6,0.9,12.6,2.3c2.9,1,5.6,2.3,8.2,4c0.3,0.2,0.4,0.5,0.2,0.7C35.3,46,35.1,46.1,34.9,46.1z"/>
			</g>
		</g>
		<g>
			<path class="st9" d="M45.7,23.2c-0.2,0-0.4-0.1-0.5-0.4s0-0.6,0.3-0.7c3.8-1.5,7.7-2.5,11.7-2.9c4.1-0.4,8.3-0.4,12.3,0.2
				c0.3,0,0.5,0.4,0.4,0.6c0,0.3-0.4,0.5-0.6,0.4c-4-0.6-8-0.6-12.1-0.2C53.3,20.7,49.5,21.7,45.7,23.2
				C45.9,23.2,45.8,23.2,45.7,23.2z"/>
			<path class="st9" d="M43.3,33.8c-0.3,0-0.4-0.2-0.5-0.4c-0.1-0.3,0.1-0.6,0.4-0.7c3.8-1.2,7.7-1.9,11.6-2.2
				c4.2-0.4,8.5-0.3,12.8,0.3c0.3,0,0.5,0.4,0.4,0.6c0,0.3-0.4,0.5-0.6,0.4c-4.1-0.5-8.3-0.6-12.5-0.3C51,31.9,47.2,32.6,43.3,33.8
				C43.4,33.8,43.3,33.8,43.3,33.8z"/>
			<path class="st9" d="M43.3,39.6c-0.3,0-0.4-0.2-0.5-0.4c-0.1-0.3,0.1-0.6,0.4-0.7c3.8-1.2,7.7-1.9,11.6-2.2
				c4.2-0.4,8.5-0.3,12.8,0.3c0.3,0,0.5,0.4,0.4,0.6c0,0.3-0.4,0.5-0.6,0.4c-4.1-0.5-8.3-0.6-12.5-0.3C51,37.7,47.2,38.4,43.3,39.6
				C43.4,39.6,43.3,39.6,43.3,39.6z"/>
			<path class="st9" d="M43.8,46.4c-0.3,0-0.4-0.2-0.5-0.4c-0.1-0.3,0.1-0.6,0.4-0.7c1.4-0.4,2.9-0.8,4.4-1.1
				c2.4-0.5,4.9-0.8,7.4-0.9c0.3,0,0.5,0.2,0.5,0.5c0,0.3-0.2,0.5-0.5,0.5c-2.4,0.1-4.8,0.4-7.2,0.9C46.7,45.6,45.3,45.9,43.8,46.4
				C43.9,46.4,43.8,46.4,43.8,46.4z"/>
			<path class="st9" d="M45.5,28c-0.3,0-0.4-0.2-0.5-0.4c-0.1-0.3,0.1-0.6,0.4-0.6c3.7-0.8,7.4-1.4,11.2-1.7c4-0.4,8-0.4,12.1,0
				c0.3,0,0.5,0.3,0.5,0.6c0,0.3-0.3,0.5-0.6,0.5c-3.9-0.3-8-0.3-11.9,0c-3.7,0.3-7.4,0.9-11,1.7C45.6,28,45.5,28,45.5,28z"/>
		</g>
	</g>
</g>
<g id="office_Supplies_Chair" class="st0">
	<g class="st2">
		<path class="st9" d="M27.2,68.2c-1.7,0-3-1.4-3-3c0-1.4,0.9-2.5,2.2-2.9c0.2-0.6,0.4-1,0.5-1.4c0.4-1.1,0.6-1.8,1.9-3.1
			c2.6-2.7,5.9-2.8,9.6-2.9c0.2,0,0.4,0,0.6,0L38.4,49c-0.5-0.1-1.1-0.1-1.8-0.1c-0.3,0-0.6,0-0.8,0c-4,0-5.1-0.7-6.2-1.3
			c-0.7-0.4-1.3-0.7-2.8-1c-2.7-0.4-4.2-1.7-5.4-3.2c-1.6-1.9-1.9-3.9-1.9-6.5c0-0.5,0-1.2-0.1-2c-0.2-3.9-0.2-6.7,1.3-7.8
			c0.5-0.3,1.3-0.6,2.4-0.1c1.7,0.8,1.6,3.1,1.4,6c-0.1,4.4-0.1,7.6,2.4,8.4l0,0c0.7-0.7,1.5-1.5,3.2-1.7l7.4-0.1v-0.1l-6.9-0.2
			c-2.4-0.2-3.6-1.6-4.3-2.7c-1.2-1.7-1.1-3.8-1-5.7l2-22.2c0.9-8.2,10-8,13.9-7.9h1.1C47.4,0.9,53.8,1,54.7,8.6l1.8,22.1
			c0.4,5.1-1.5,8.2-5.2,8.5l-7,0.1v0.2c1.2,0.1,2.4,0.1,3.8,0.1c1.5,0,3.1,0,4.7,0.2H53l0.2,0.1c0.9,0.5,1.4,0.9,1.8,1.3l0.1,0.1
			c2.5-0.8,2.6-3.9,2.3-8.2c-0.2-2.8-0.3-5.3,1.4-6c0.8-0.4,1.6-0.4,2.3,0s1.2,1.2,1.4,2.2l0,0c0.2,1.3,0.1,3.5,0.1,5.4
			c0,0.8,0,1.6,0,2.2c0,5.3-2.8,9.1-7.3,9.7c-1.8,0.3-2,0.4-2.3,0.7c-0.5,0.4-1.1,0.8-3,1.3c-1.3,0.3-2.7,0.3-4,0.3
			c-0.8,0-1.6,0-2.3,0.1l-0.6,6c0.4,0,0.8,0,1.2,0c3.5,0.1,6.3,0.1,9.1,2.8c1.3,1.3,1.6,1.9,1.9,3.1c0.1,0.4,0.3,0.8,0.5,1.3
			c1.3,0.3,2.3,1.5,2.3,2.9c0,1.7-1.4,3-3,3s-3-1.4-3-3c0-0.6,0.2-1.2,0.5-1.7c-0.2-0.6-0.6-1.7-0.9-2.2c-0.5-0.9-2.4-2.3-4.4-2.5
			h-0.2l-0.2-0.1c-0.7-0.4-2.5-0.4-3.9-0.2c0,0.5,0,1.1,0,1.6c0,0.3,0,0.6,0,0.8c0,0.7,0.1,1.3,0.3,1.8c0.7,0.6,1.1,1.4,1.1,2.4
			c0,1.7-1.4,3-3,3c-1.6,0-3-1.4-3-3c0-1,0.5-2,1.4-2.5l-0.5-4.1c-1.4-0.2-3.2-0.1-3.9,0.2l-0.2,0.1H35c-2.1,0.2-3.9,1.5-4.5,2.6
			c-0.2,0.5-0.6,1.5-0.8,2.1c0.3,0.5,0.5,1.1,0.5,1.7C30.2,66.9,28.9,68.2,27.2,68.2z M27.5,64.2h-0.4c-0.5,0-0.9,0.4-0.9,0.9
			s0.4,0.9,0.9,0.9s0.9-0.4,0.9-0.9c0-0.2-0.1-0.5-0.3-0.7L27.5,64.2z M54.5,64.2l-0.3,0.3c-0.2,0.2-0.3,0.4-0.3,0.6
			c0,0.5,0.4,0.9,0.9,0.9s0.9-0.4,0.9-0.9s-0.4-0.9-0.9-0.9H54.5z M41.2,64l-0.4,0.2c-0.4,0.1-0.6,0.5-0.6,0.9
			c0,0.5,0.4,0.9,0.9,0.9s0.9-0.4,0.9-0.9c0-0.3-0.2-0.6-0.5-0.8L41.2,64z M37.4,46.8c0.8,0,1.6,0.1,2.4,0.4l0.6,0.2l0.6,5.9
			l0.6-6.2l0.7-0.2c1.2-0.2,2.4-0.2,3.5-0.2c1.2,0,2.4,0,3.5-0.2c1.6-0.4,1.9-0.6,2.2-0.9c0.6-0.5,1.1-0.8,3.3-1.1
			c5-0.7,5.5-5.5,5.5-7.6c0-0.6,0-1.4,0-2.3c0-1.8,0.1-3.9,0-5l0,0c0-0.3-0.2-0.5-0.3-0.6s-0.3,0-0.4,0.1c-0.4,0.3-0.2,2.6-0.2,4
			c0.2,4,0.5,9.6-4.5,10.5l-0.5,0.1L54,43.4c-0.2-0.2-0.4-0.4-0.6-0.5c-0.4-0.3-0.6-0.6-1.1-0.8C50.9,42,49.4,42,48,42
			c-1.7,0-3.4,0-5-0.2l-1-0.1l0.3-4.1l8.8-0.2c3-0.3,3.4-3.6,3.2-6.3l-1.8-22c-0.6-5.3-4.3-5.8-10.3-5.9H41
			c-7.9-0.2-11.3,1.5-11.8,6l-1.6,21.9c-0.2,2-0.1,3.3,0.6,4.4c0.8,1.1,1.6,1.6,2.7,1.8l8.9,0.3l-0.1,4.2l-9.4,0.1
			C29.4,42,29,42.4,28.4,43c-0.1,0.1-0.3,0.3-0.5,0.4l-0.4,0.3L27,43.6c-5-0.9-4.7-6.5-4.5-10.5c0.1-1.4,0.2-3.6-0.2-4
			C22.1,29,22,29,22,29c-0.7,0.5-0.5,4.4-0.4,5.9c0,0.8,0.1,1.5,0.1,2.1c0,2.6,0.3,3.9,1.4,5.1c1.2,1.3,2.2,2.2,4.1,2.4
			c2,0.3,2.9,0.8,3.6,1.2c0.9,0.5,1.7,1,5.1,1c0.3,0,0.5,0,0.8,0C36.9,46.8,37.2,46.8,37.4,46.8z"/>
		<path class="st9" d="M35.6,13.5h11c1.7,0,2.6-0.4,2.5,1.2c-1.1,0.5-14.9,0.5-16,0C32.9,13.2,34,13.5,35.6,13.5z"/>
		<path class="st9" d="M49,19.4c-1.2,0.5-13.7,0.4-15.9,0c-0.2-1.7,0.9-1.3,2.5-1.3h8.6C47.7,18.1,49.1,17.6,49,19.4z"/>
		<path class="st9" d="M33.1,23.6c-0.2-1.7,0.9-1.3,2.5-1.3h8.6c3.5,0,4.9-0.5,4.8,1.3C47.8,24.1,35.2,24,33.1,23.6z"/>
	</g>
</g>
<g id="lumber_Saw" class="st0">
	<g class="st2">
		<path class="st9" d="M71.6,12.3c-0.1-0.2-0.2-0.6-0.5-0.7L62,2.5c-1.3-1.3-3.3-1.3-4.7,0L26.5,30.6c-0.1,0.1-0.1,0.1-0.2,0.2
			c0,0,0,0-0.1,0c-0.7,0-1.5,0.2-2.1,0.8L9.5,46.2l0,0c-0.9,0.9-0.9,2.2-0.1,3.4l10.8,16.9c0.3,0.5,0.8,0.8,1.4,0.9
			c0.1,0,0.3,0,0.5,0c0.6,0,1.3-0.2,1.8-0.6l12.9-9.2c0.5-0.3,0.9-1.6,1.1-3.2c0.1,0.1,0.3,0.1,0.5,0.1l4.7,0.2c0,0,0,0,0.1,0
			c0.3,0,0.7-0.1,0.9-0.5c0.2-0.3,0.3-0.7,0.2-1L43,47.8l5.7,0.2c0.3,0,0.8-0.1,1-0.5c0.2-0.3,0.3-0.7,0.2-1l-1-5.4l5.7,0.2
			c0.3,0,0.8-0.1,1-0.5c0.2-0.3,0.3-0.7,0.2-1l-1.3-5.6l5.7,0.2c0.3,0,0.8-0.1,1-0.5c0.2-0.3,0.3-0.7,0.2-1l-1.3-5.5l5.7,0.2
			c0.3,0,0.8-0.1,1-0.5s0.3-0.7,0.2-1l-1.3-5.6l5.7,0.2c0.3,0,0.8-0.1,1-0.5c0.2-0.3,0.3-0.7,0.2-1L71.6,12.3z M35,55.9l-12.7,8.9
			c-0.1,0-0.1,0.1-0.2,0.1L11.5,48.2c-0.1-0.1-0.1-0.2-0.1-0.3L26,33.3c1.1,1.5,2.6,3,4,4.5c1.9,2.1,3.9,4.1,5.1,6.1
			C36.3,45.7,35.6,54.2,35,55.9z M64.7,18c-0.3,0-0.8,0.1-1,0.5c-0.2,0.3-0.3,0.7-0.2,1l1.3,5.6l-5.7-0.2c-0.5,0-0.8,0.1-1,0.5
			c-0.2,0.3-0.3,0.7-0.2,1l1.3,5.6l-5.7-0.2c-0.3,0-0.8,0.1-1,0.5c-0.2,0.3-0.3,0.7-0.2,1l1.3,5.6l-5.7-0.2c-0.3,0-0.8,0.1-1,0.5
			c-0.2,0.3-0.3,0.7-0.2,1l1.3,5.6l-5.7-0.2c-0.3,0-0.8,0.1-1,0.5c-0.2,0.3-0.3,0.7-0.2,1l1.3,5.6l-3.1-0.1c-0.1,0-0.2,0-0.3,0.1
			c0.2-3.8,0-8.2-0.9-9.8c-1.4-2.2-3.4-4.3-5.5-6.5c-1.3-1.4-2.4-2.5-3.4-3.8L58.9,4.3c0.3-0.3,0.9-0.3,1.3,0l9,9l0,0l1.1,5.1
			L64.7,18z"/>
		<path class="st9" d="M22.9,60.1c-0.2,0-0.5,0-0.6-0.1c-0.3-0.1-0.9-0.5-1.3-1.1L17,49.4c-0.6-1.3-0.3-2.7,0.6-3.5l0,0l3.8-3.8
			c0.6-0.6,1.3-0.8,1.9-0.7c0.7,0.1,1.4,0.6,1.7,1.3l5,10.5c0.6,1.3,0.5,3.1-0.8,3.8l-4.9,2.7C23.8,60,23.3,60.1,22.9,60.1z
			 M23.3,57.8L23.3,57.8L23.3,57.8z M19.4,47.6c-0.1,0.1-0.1,0.5,0,0.8l3.8,9l4.6-2.6c0-0.1,0-0.5-0.1-0.7l-4.8-10.2L19.4,47.6z"/>
	</g>
</g>
<g id="housewares_Pot" class="st0">
	<g class="st2">
		<path class="st9" d="M74.1,25.5h-4.3v-2.5C69.8,15.3,63.6,9,55.8,9h-6.8c-0.6-3.8-3.9-6.9-8-6.9s-7.5,3-8,6.9h-6.8
			C18.3,9.1,12,15.4,12,23.2v2.5H7.8c-2.9,0-5.2,2.3-5.2,5.2s2.3,5.2,5.2,5.2H12v16.7c0,7.8,6.3,14.1,14.1,14.1h29.8
			c7.8,0,14.1-6.3,14.1-14.1V36.1h4.3c2.9,0,5.2-2.3,5.2-5.2C79.4,28,77.1,25.5,74.1,25.5z M74.1,34h-4.3v-6.2h4.3
			c1.7,0,3.1,1.4,3.1,3.1C77.3,32.6,75.8,34,74.1,34z M14.2,52.9V24.6h53.5v28.4c0,6.5-5.3,11.8-11.8,11.8H26
			C19.5,64.8,14.2,59.5,14.2,52.9z M4.6,30.9c0-1.7,1.4-3.1,3.1-3.1h4.3V34H7.7C6,34,4.6,32.6,4.6,30.9z M26,11.3h29.8
			c6.3,0,11.4,4.9,11.8,11.1H14.2C14.6,16.2,19.8,11.3,26,11.3z M40.9,4.4c2.9,0,5.2,2,5.9,4.7H35.1C35.7,6.5,38.1,4.4,40.9,4.4z"/>
		<path class="st9" d="M52.1,35.1H29.7v24.6h22.4V35.1z M50,57.6H31.9V37.4H50V57.6z"/>
		<rect x="36.3" y="41.9" class="st9" width="9.4" height="2.1"/>
		<rect x="36.3" y="50.4" class="st9" width="9.4" height="2.1"/>
	</g>
</g>
<g id="Home_Furnishings_Chair" class="st0">
	<g class="st2">
		<g>
			<rect x="8" y="22.7" class="st6" width="14.2" height="18.9"/>
		</g>
		<g>
			<rect x="8" y="41.6" class="st6" width="66.1" height="14.2"/>
		</g>
		<g>
			<rect x="59.9" y="22.7" class="st6" width="14.2" height="18.9"/>
		</g>
		<g>
			<rect x="22.1" y="3.8" class="st6" width="37.8" height="37.8"/>
		</g>
		<g>
			<path class="st9" d="M74,56.9H8c-0.7,0-1.2-0.5-1.2-1.2V41.6c0-0.7,0.5-1.2,1.2-1.2H74c0.7,0,1.2,0.5,1.2,1.2v14.2
				C75.2,56.5,74.8,56.9,74,56.9z M9.1,54.6h63.7V42.8H9.1V54.6z"/>
		</g>
		<g>
			<path class="st9" d="M17.4,66.4h-4.7c-0.7,0-1.2-0.5-1.2-1.2v-9.4c0-0.7,0.5-1.2,1.2-1.2h4.7c0.7,0,1.2,0.5,1.2,1.2v9.4
				C18.6,65.9,18.1,66.4,17.4,66.4z M13.9,64h2.4v-7.1h-2.4V64z"/>
		</g>
		<g>
			<path class="st9" d="M69.3,66.4h-4.7c-0.7,0-1.2-0.5-1.2-1.2v-9.4c0-0.7,0.5-1.2,1.2-1.2h4.7c0.7,0,1.2,0.5,1.2,1.2v9.4
				C70.5,65.9,70,66.4,69.3,66.4z M65.8,64h2.4v-7.1h-2.4V64z"/>
		</g>
		<g>
			<path class="st9" d="M74,42.8H59.9c-0.7,0-1.2-0.5-1.2-1.2V22.7c0-0.7,0.5-1.2,1.2-1.2H74c0.7,0,1.2,0.5,1.2,1.2v18.9
				C75.2,42.3,74.8,42.8,74,42.8z M61.1,40.4h11.8V23.9H61.1V40.4z"/>
		</g>
		<g>
			<path class="st9" d="M22.1,42.8H8c-0.7,0-1.2-0.5-1.2-1.2V22.7c0-0.7,0.5-1.2,1.2-1.2h14.2c0.7,0,1.2,0.5,1.2,1.2v18.9
				C23.3,42.3,22.8,42.8,22.1,42.8z M9.1,40.4h11.8V23.9H9.1V40.4z"/>
		</g>
		<g>
			<path class="st9" d="M59.9,42.8H22.1c-0.7,0-1.2-0.5-1.2-1.2V3.8c0-0.7,0.5-1.2,1.2-1.2h37.8c0.7,0,1.2,0.5,1.2,1.2v37.8
				C61.1,42.3,60.6,42.8,59.9,42.8z M23.3,40.4h35.4V5H23.3V40.4z"/>
		</g>
	</g>
</g>
<g id="cleaning_Vaccum">
	<g>
		<path class="st10" d="M45.9,42.7c-1.2-1.8-2.8-3.4-4.8-4.9c-4.9-3.6-12.1-6-21.6-7.3c-2.3-0.2-8.8-1.1-11.2-1.3"/>
		<path class="st10" d="M11.8,59.7c-3.2,0-5.8-2.5-5.8-5.8c0-3.2,2.5-5.8,5.8-5.8c3.2,0,5.8,2.5,5.8,5.8
			C17.6,57.2,15,59.7,11.8,59.7z"/>
		<line class="st10" x1="8.2" y1="42.7" x2="49.3" y2="42.7"/>
		<path class="st10" d="M31.7,29.5c0.1-0.2,0.1-0.4,0-0.6l-2.5-9c-1.1-3.6-0.3-7.4,2-10.4s5.7-4.7,9.4-4.7c4.8,0,9,3.3,10.2,7.8
			l10.8,40.9l2.3-0.5L53.2,12c-1.5-5.7-6.7-9.7-12.5-9.7c-4.6,0-8.7,2-11.5,5.6s-3.6,8.2-2.3,12.5l2.3,8.3"/>
		<path class="st10" d="M18.6,58.9h24.1c4.8,0,8.7-3,8.7-6.6c0-12.5-8.1-19.3-19.7-22.8c-1.4-0.2-2.4-0.6-2.4-0.6
			c-2.5-0.6-5.2-1.2-8.1-1.5c-2.2-0.3-6-0.6-8.3-0.8c-3.6-0.2-4.7,1.4-4.7,3.3v16.5"/>
		<path class="st10" d="M61.6,53.6l-1,0.2l1,4.1c0.2,0.8-0.3,1.7-1.2,1.9l-7.5,1.8c-0.7,0.2-1.4,0.8-1.4,1.7l-0.1,3.3l27.3-6.4
			l-1.6-3c-0.4-0.7-1.2-1.1-2-0.8l-7.5,1.8c-0.8,0.2-1.7-0.3-1.9-1.2l-1-4.1l-0.7,0.2"/>
		<circle class="st10" cx="11.8" cy="53.9" r="8.5"/>
	</g>
</g>
<g id="bulk_Order_Food" class="st0">
	<g class="st2">
		<path class="st9" d="M68.7,62.7c0.7,0,1.2-0.5,1.2-1.2c0-0.1,0-0.2,0-0.4L64,24c0-0.2-0.1-0.5-0.4-0.7c0.6-0.7,0.8-1.6,0.8-2.5
			c0-2.2-1.8-4-4-4h-6h-5.9c-0.6-2.2-1.1-4.1-1.3-5.3c1.9-0.6,3.4-2.5,3.4-4.7c0-2.8-2.2-4.9-4.8-4.9H24c-2.7,0-4.8,2.2-4.8,4.9
			c0,2.3,1.6,4.2,3.6,4.8c-1.2,3.5-3.9,11.6-6.3,19.8c-1.9,6.4-3.3,11.6-3.9,15.4c-1,5.7-0.7,8.4,0.8,9.4c0.6,0.4,2.3,1.3,11.7,1.4
			l-0.8,8.2c0,0.4,0.1,0.7,0.4,1c0.2,0.2,0.6,0.4,0.8,0.4h21.2c0.1,0,0.1,0,0.2,0l6.3-0.4c0.4,0,0.6-0.2,0.8-0.5
			c0.2-0.2,0.4-0.6,0.2-1L54,62.7h1.7L68.7,62.7C68.7,62.7,68.7,62.7,68.7,62.7z M60.4,57.8l-0.7-11.5c0-0.7-0.6-1.2-1.3-1.1
			c-0.7,0-1.2,0.6-1.1,1.3L58,58c0,0.6-0.1,1.2-0.6,1.7s-1,0.7-1.6,0.7h-1.7h-0.5l-0.2-1.6h1.1c0.4,0,0.7-0.4,0.7-0.7
			s-0.4-0.7-0.7-0.7h-1.2L51,43.2c1.7-1,2.8-2.7,2.8-4.7c0-2.9-2.4-5.3-5.3-5.3s-5.3,2.4-5.3,5.3c0,0.1,0,0.1,0,0.2h-3.6l1-11.8
			c0.1-1.2,1.1-2,2.2-2h5.5H54c1.2,0,2.2,1,2.3,2.2L57,39.8c0,0.7,0.6,1.2,1.3,1.1c0.7,0,1.2-0.6,1.1-1.3l-0.7-12.8
			c0-0.5-0.1-1-0.2-1.3h3.4l5.5,34.8h-7.5C60.2,59.5,60.4,58.6,60.4,57.8z M28.2,50.3c0.1-0.6-0.5-1.2-1.1-1.3
			c-0.6-0.1-1.2,0.5-1.3,1.1l-0.1,1.8l-8.8-0.5c-0.4,0-0.7,0.2-0.7,0.6s0.2,0.7,0.6,0.7l8.7,0.4l-0.1,2.2c-8.1,0-10.1-0.8-10.6-1.1
			c-0.2-0.2-1.6-3,4.2-22.8c2.4-8.4,5.2-16.6,6.3-19.6h19.6c0.1,0.5,0.2,1,0.4,1.6l-13.1-0.1l0,0c-0.4,0-0.7,0.4-0.7,0.7
			c0,0.4,0.4,0.7,0.7,0.7l13.5,0.1c0.1,0.6,0.4,1.3,0.5,2h-4c-2.2,0-4,1.8-4,4c0,1.1,0.5,2.2,1.2,2.9c-0.8,0.7-1.3,1.8-1.4,3l-0.1,3
			L33,24.9c-0.2-0.2-0.7-0.2-1,0l-5.7,5.5c-0.1,0.1-0.2,0.4-0.2,0.5c0,0.2,0.1,0.4,0.2,0.5l5.8,5.9c0.1,0.1,0.4,0.2,0.5,0.2
			c0.1,0,0.4-0.1,0.5-0.2l4.5-4.3l-0.5,5.8h-9c-0.6,0-1.1,0.5-1.2,1.1l-0.1,1.7c-0.1,0.6,0.5,1.2,1.1,1.3c0.7,0.1,1.2-0.5,1.3-1.1
			v-0.6h14.9l0.2,4.2h-7c-0.4,0-0.7,0.4-0.7,0.7s0.4,0.7,0.7,0.7h7.1l1,18.1H26.9L28.2,50.3z M21.6,6.8c0-1.4,1.1-2.5,2.4-2.5h21.8
			c1.3,0,2.4,1.1,2.4,2.5s-1.1,2.5-2.4,2.5H24C22.7,9.3,21.6,8.2,21.6,6.8z M44.4,38.5c0-2.2,1.8-4,4-4s4,1.8,4,4
			c0,1.3-0.6,2.5-1.7,3.3l-0.4-1.9c-0.1-0.6-0.6-1-1.2-1h-3.3h-0.7h-0.7C44.4,38.6,44.4,38.5,44.4,38.5z M51.8,64.4l-4.2,0.2
			L46.4,41h1.8L51.8,64.4z M62.1,20.8c0,0.8-0.7,1.6-1.6,1.6h-2.4c0.2-0.5,0.4-1,0.4-1.6c0-0.6-0.1-1.1-0.4-1.6h2.4
			C61.4,19.2,62.1,19.9,62.1,20.8z M56.1,20.8c0,0.8-0.7,1.6-1.6,1.6H54h-5.8h-5.5h-0.5c-0.8,0-1.6-0.7-1.6-1.6
			c0-0.8,0.7-1.6,1.6-1.6h6h6.4C55.3,19.2,56.1,19.9,56.1,20.8z M37.2,31.1l-4.7,4.7l-4.8-4.9l4.7-4.6L37.2,31.1z"/>
		<path class="st9" d="M58.5,41.7c-0.7-0.1-1.3,0.4-1.4,1.1c-0.1,0.7,0.4,1.3,1.1,1.4c0.7,0.1,1.3-0.4,1.4-1.1
			C59.7,42.5,59.2,41.9,58.5,41.7z"/>
		<path class="st9" d="M28.9,46.2c0.1-0.8-0.5-1.6-1.2-1.7C27,44.4,26.2,45,26,45.7c-0.1,0.8,0.5,1.6,1.2,1.7
			C28.1,47.5,28.8,46.9,28.9,46.2z"/>
		<path class="st9" d="M31.2,55.8h9.6c0.7,0,1.2-0.5,1.2-1.2s-0.5-1.2-1.2-1.2h-9.6c-0.7,0-1.2,0.5-1.2,1.2S30.6,55.8,31.2,55.8z"/>
	</g>
</g>
</svg>
